SplineFontDB: 3.0
FontName: Tienne-Heavy
FullName: Tienne Heavy
FamilyName: Tienne
Weight: Black
Copyright: Copyright (c) 2011 by vernon adams. All rights reserved.
Version: 001.000
ItalicAngle: 0
UnderlinePosition: -103
UnderlineWidth: 102
Ascent: 1638
Descent: 410
sfntRevision: 0x0001076d
LayerCount: 2
Layer: 0 0 "Back"  1
Layer: 1 0 "Fore"  0
NeedsXUIDChange: 1
XUID: [1021 14 500265001 4633143]
FSType: 0
OS2Version: 3
OS2_WeightWidthSlopeOnly: 0
OS2_UseTypoMetrics: 1
CreationTime: 1311217380
ModificationTime: 1337834426
PfmFamily: 17
TTFWeight: 900
TTFWidth: 5
LineGap: 39
VLineGap: 0
Panose: 2 0 5 5 0 0 0 2 0 4
OS2TypoAscent: -225
OS2TypoAOffset: 1
OS2TypoDescent: -44
OS2TypoDOffset: 1
OS2TypoLinegap: 78
OS2WinAscent: -82
OS2WinAOffset: 1
OS2WinDescent: -21
OS2WinDOffset: 1
HheadAscent: -82
HheadAOffset: 1
HheadDescent: 21
HheadDOffset: 1
OS2SubXSize: 1331
OS2SubYSize: 1229
OS2SubXOff: 0
OS2SubYOff: 154
OS2SupXSize: 1331
OS2SupYSize: 1229
OS2SupXOff: 0
OS2SupYOff: 717
OS2StrikeYSize: 102
OS2StrikeYPos: 512
OS2Vendor: 'newt'
OS2CodePages: 20000001.00000000
OS2UnicodeRanges: 800000ef.4000204b.00000000.00000000
Lookup: 258 0 0 "'kern' Horizontal Kerning lookup 0"  {"'kern' Horizontal Kerning lookup 0 kerning class 0"  "'kern' Horizontal Kerning lookup 0 kerning class 1"  "'kern' Horizontal Kerning lookup 0 kerning class 2"  } ['kern' ('DFLT' <'dflt' > 'grek' <'dflt' > 'latn' <'dflt' > ) ]
MarkAttachClasses: 1
DEI: 91125
KernClass2: 2 3 "'kern' Horizontal Kerning lookup 0 kerning class 0" 
 5 V W Y
 139 c d e o q ccedilla egrave eacute ecircumflex edieresis ograve oacute ocircumflex otilde odieresis oslash oe uni0205 uni0207 uni020D uni020F
 69 a agrave aacute acircumflex atilde adieresis aring ae uni0201 uni0203
 0 {} 0 {} 0 {} 0 {} -158 {} -189 {}
KernClass2: 2 3 "'kern' Horizontal Kerning lookup 0 kerning class 1" 
 1 T

StartChar: exclam
Encoding: 33 33 23
Width: 791
GlyphClass: 2
Flags: HW
LayerCount: 2
Fore
SplineSet
210 169 m 0
 210 282 297 359 410 358 c 128
 522 357 610 280 610 167 c 0
 610 47 530 -22 410 -22 c 128
 288 -22 210 51 210 169 c 0
412 1412 m 128
 523 1412 619 1404 619 1296 c 2
 619 1281 l 2
 619 1276 613 1223 600 1124 c 0
 557 788 530 570 518 470 c 1
 493 455 465 448 434 448 c 128
 332 448 281 451 272 547 c 1
 256 694 238 828 217 951 c 0
 183 1153 166 1268 166 1297 c 128
 166 1407 303 1412 412 1412 c 128
EndSplineSet
EndChar

StartChar: quotedbl
Encoding: 34 34 24
Width: 1009
GlyphClass: 2
Flags: HW
LayerCount: 2
Fore
SplineSet
110 1370 m 1
 155 1397 216 1411 292 1411 c 0
 369 1410 419 1398 440 1374 c 0
 448 1365 452 1352 452 1336 c 1
 420 1051 403 902 402 891 c 1
 362 877 322 870 281 870 c 0
 206 870 164 899 154 957 c 1
 110 1370 l 1
557 1370 m 1
 602 1397 663 1411 739 1411 c 0
 816 1410 865 1398 886 1374 c 0
 894 1365 898 1352 899 1336 c 1
 867 1051 850 902 849 891 c 1
 809 877 769 870 728 870 c 0
 653 870 611 899 601 957 c 1
 557 1370 l 1
EndSplineSet
EndChar

StartChar: numbersign
Encoding: 35 35 25
Width: 1167
GlyphClass: 2
Flags: HW
LayerCount: 2
Fore
SplineSet
436 588 m 1
 680 588 l 1
 732 834 l 1
 488 834 l 1
 436 588 l 1
1120 926 m 2
 1120 851 1110 834 1039 834 c 2
 894 834 l 1
 841 588 l 1
 1048 588 l 1
 1048 510 l 2
 1048 463 1035 446 996 438 c 1
 811 438 l 1
 736 72 l 1
 676 72 l 2
 632 72 590 80 590 116 c 0
 590 135 592 152 595 167 c 2
 650 438 l 1
 406 438 l 1
 330 72 l 1
 260 72 l 2
 221 72 182 75 182 104 c 1
 183 127 185 148 190 167 c 1
 246 438 l 1
 46 438 l 1
 46 498 l 2
 46 571 60 588 127 588 c 2
 274 588 l 1
 325 834 l 1
 119 834 l 1
 119 913 l 2
 119 973 140 985 201 985 c 2
 357 985 l 1
 432 1345 l 1
 493 1345 l 2
 538 1345 581 1338 581 1300 c 0
 581 1282 578 1259 572 1231 c 2
 520 985 l 1
 761 985 l 1
 838 1345 l 1
 897 1345 l 2
 946 1345 984 1337 984 1294 c 128
 984 1276 981 1252 974 1223 c 2
 923 985 l 1
 1120 985 l 1
 1120 926 l 2
EndSplineSet
EndChar

StartChar: dollar
Encoding: 36 36 26
Width: 1336
GlyphClass: 2
Flags: HW
LayerCount: 2
Fore
SplineSet
731 163 m 1
 787 188 818 261 818 342 c 0
 818 417 789 479 731 526 c 1
 731 163 l 1
628 1237 m 1
 566 1222 535 1170 535 1083 c 128
 535 996 566 932 628 891 c 1
 628 1237 l 1
106 1032 m 0
 106 1282 367 1391 628 1408 c 1
 628 1534 l 1
 696 1534 731 1522 731 1458 c 2
 731 1412 l 1
 897 1412 1027 1387 1121 1337 c 0
 1151 1321 1174 1303 1191 1283 c 0
 1192 1282 1192 1280 1192 1277 c 128
 1192 1255 1185 1236 1179 1208 c 0
 1166 1153 1150 1087 1129 1010 c 1
 826 1082 l 1
 782 1152 750 1194 731 1208 c 1
 731 842 l 1
 869 785 989 737 1103 658 c 1
 1190 588 1253 524 1253 397 c 128
 1253 264 1191 169 1111 106 c 0
 1017 31 890 -11 731 -20 c 1
 731 -186 l 1
 642 -186 628 -170 628 -86 c 2
 628 -21 l 1
 431 -16 263 35 126 130 c 0
 105 145 89 159 80 174 c 1
 80 199 82 221 87 240 c 1
 175 466 l 1
 478 346 l 1
 522 244 572 183 628 162 c 1
 628 587 l 1
 602 601 570 616 532 632 c 0
 418 679 339 717 296 744 c 128
 197 807 106 900 106 1032 c 0
EndSplineSet
EndChar

StartChar: percent
Encoding: 37 37 27
Width: 1658
GlyphClass: 2
Flags: HW
LayerCount: 2
Fore
SplineSet
1602 358 m 0
 1602 139 1491 -23 1278 -23 c 0
 1167 -23 1090 22 1038 84 c 0
 982 152 954 243 955 358 c 1
 954 540 1015 658 1138 713 c 0
 1178 731 1225 740 1279 740 c 128
 1503 740 1602 582 1602 358 c 0
1280 616 m 128
 1162 616 1154 479 1154 359 c 128
 1154 230 1166 103 1287 103 c 1
 1356 102 1395 159 1404 272 c 1
 1417 411 1418 616 1280 616 c 128
383 651 m 0
 167 652 56 809 56 1033 c 0
 56 1215 117 1333 238 1386 c 0
 278 1403 324 1412 377 1412 c 128
 598 1412 698 1253 698 1031 c 128
 698 814 588 651 383 651 c 0
249 1032 m 128
 249 908 264 777 378 775 c 1
 447 776 487 828 498 932 c 0
 501 963 503 996 503 1031 c 0
 503 1202 461 1287 378 1287 c 1
 307 1288 265 1236 254 1132 c 0
 251 1101 249 1068 249 1032 c 128
492 -34 m 1
 338 53 l 1
 1186 1440 l 1
 1340 1352 l 1
 492 -34 l 1
EndSplineSet
EndChar

StartChar: ampersand
Encoding: 38 38 28
Width: 1597
GlyphClass: 2
Flags: HW
LayerCount: 2
Fore
SplineSet
481 374 m 0
 481 215 551 136 690 136 c 0
 787 136 837 232 842 425 c 0
 843 452 843 478 843 502 c 2
 843 680 l 1
 671 680 l 2
 582 680 523 622 495 507 c 0
 486 469 481 425 481 374 c 0
673 -22 m 0
 328 -22 77 65 77 377 c 0
 77 556 176 682 373 757 c 1
 200 810 114 909 114 1054 c 0
 114 1293 333 1412 770 1412 c 0
 880 1412 1018 1395 1184 1361 c 1
 1184 1006 l 1
 933 1006 l 1
 911 1137 849 1252 709 1252 c 0
 602 1252 510 1174 510 1068 c 0
 510 917 561 837 708 837 c 2
 1497 837 l 1
 1497 507 l 1
 1371 507 l 1
 1371 609 1312 680 1201 680 c 1
 1201 491 l 2
 1201 139 1027 -22 673 -22 c 0
EndSplineSet
EndChar

StartChar: quotesingle
Encoding: 39 39 29
Width: 562
GlyphClass: 2
Flags: HW
LayerCount: 2
Fore
SplineSet
110 1370 m 1
 155 1397 216 1411 292 1411 c 0
 369 1410 419 1398 440 1374 c 0
 448 1365 452 1352 452 1336 c 1
 420 1051 403 902 402 891 c 1
 362 877 322 870 281 870 c 0
 206 870 164 899 154 957 c 1
 110 1370 l 1
EndSplineSet
EndChar

StartChar: parenleft
Encoding: 40 40 30
Width: 733
GlyphClass: 2
Flags: HW
LayerCount: 2
Fore
SplineSet
94 638 m 128
 94 1003 202 1280 419 1469 c 1
 532 1464 619 1447 681 1418 c 1
 554 1211 491 951 491 638 c 128
 491 325 554 65 681 -142 c 1
 623 -171 536 -188 419 -193 c 1
 202 -4 94 273 94 638 c 128
EndSplineSet
EndChar

StartChar: parenright
Encoding: 41 41 31
Width: 734
GlyphClass: 2
Flags: HW
LayerCount: 2
Fore
SplineSet
639 638 m 0
 639 277 521 -15 314 -193 c 1
 195 -188 108 -171 52 -142 c 1
 179 65 242 325 242 638 c 128
 242 951 179 1211 52 1418 c 1
 112 1447 199 1464 314 1469 c 1
 531 1280 639 1003 639 638 c 0
EndSplineSet
EndChar

StartChar: asterisk
Encoding: 42 42 32
Width: 882
GlyphClass: 2
Flags: HW
LayerCount: 2
Fore
SplineSet
274 703 m 1
 378 994 l 1
 110 859 l 1
 58 1014 l 1
 354 1080 l 1
 96 1269 l 1
 216 1382 l 1
 414 1139 l 1
 444 1440 l 1
 612 1409 l 1
 505 1126 l 1
 775 1252 l 1
 824 1109 l 1
 533 1041 l 1
 785 833 l 1
 653 727 l 1
 468 982 l 1
 441 660 l 1
 274 703 l 1
EndSplineSet
EndChar

StartChar: plus
Encoding: 43 43 33
Width: 1195
GlyphClass: 2
Flags: HW
LayerCount: 2
Fore
SplineSet
107 573 m 2
 107 662 175 674 272 671 c 1
 474 671 l 1
 474 1068 l 1
 536 1068 l 2
 629 1068 698 1057 719 990 c 1
 719 671 l 1
 1088 671 l 1
 1088 581 l 1
 1079 498 1043 483 954 483 c 2
 719 483 l 1
 719 85 l 1
 610 85 l 2
 542 85 484 94 478 139 c 0
 475 154 474 172 474 193 c 2
 474 483 l 1
 107 483 l 1
 107 573 l 2
EndSplineSet
EndChar

StartChar: comma
Encoding: 44 44 34
Width: 658
GlyphClass: 2
Flags: HW
LayerCount: 2
Fore
SplineSet
330 358 m 128
 460 358 543 265 543 138 c 128
 543 7 508 -67 448 -144 c 0
 389 -219 296 -296 168 -376 c 1
 74 -283 l 1
 151 -209 208 -120 245 -15 c 1
 168 1 100 66 100 154 c 128
 100 293 196 358 330 358 c 128
EndSplineSet
EndChar

StartChar: hyphen
Encoding: 45 45 35
Width: 834
GlyphClass: 2
Flags: HW
LayerCount: 2
Fore
SplineSet
41 562 m 1
 42 636 75 646 148 646 c 2
 793 646 l 1
 793 571 l 2
 793 518 769 471 717 471 c 2
 41 471 l 1
 41 562 l 1
EndSplineSet
EndChar

StartChar: period
Encoding: 46 46 36
Width: 631
GlyphClass: 2
Flags: HW
LayerCount: 2
Fore
SplineSet
115 169 m 0
 115 282 202 359 315 358 c 0
 427 357 514 279 515 167 c 1
 515 47 435 -22 315 -22 c 128
 193 -22 116 52 115 169 c 0
EndSplineSet
EndChar

StartChar: slash
Encoding: 47 47 37
Width: 906
GlyphClass: 2
Flags: HW
LayerCount: 2
Fore
SplineSet
625 1331 m 2
 650 1383 670 1412 733 1412 c 2
 906 1412 l 1
 276 48 l 2
 255 4 231 -22 171 -22 c 2
 0 -22 l 1
 625 1331 l 2
EndSplineSet
EndChar

StartChar: zero
Encoding: 48 48 38
Width: 1329
GlyphClass: 2
Flags: HW
LayerCount: 2
Fore
SplineSet
1273 704 m 0
 1273 277 1074 -22 662 -22 c 0
 452 -22 302 58 206 179 c 0
 106 306 56 481 56 704 c 0
 56 1131 252 1412 664 1412 c 0
 1079 1412 1274 1131 1273 704 c 0
846 702 m 128
 846 904 840 1223 666 1223 c 128
 599 1223 551 1180 524 1095 c 128
 497 1010 483 879 483 704 c 0
 484 435 516 267 580 202 c 0
 603 179 631 167 666 167 c 128
 750 167 787 243 808 317 c 128
 838 421 846 561 846 702 c 128
EndSplineSet
EndChar

StartChar: one
Encoding: 49 49 39
Width: 964
GlyphClass: 2
Flags: HW
LayerCount: 2
Fore
SplineSet
490 1399 m 1
 610 1400 690 1390 690 1294 c 2
 690 259 l 2
 690 230 692 199 695 167 c 1
 883 167 l 1
 883 -11 l 1
 719 -4 587 0 486 0 c 128
 385 0 246 -4 69 -11 c 1
 69 167 l 1
 255 167 l 1
 259 185 261 216 261 259 c 2
 261 1162 l 2
 261 1193 260 1219 257 1239 c 1
 88 1239 l 1
 88 1353 l 1
 224 1384 358 1399 490 1399 c 1
EndSplineSet
EndChar

StartChar: two
Encoding: 50 50 40
Width: 1271
GlyphClass: 2
Flags: HW
LayerCount: 2
Fore
SplineSet
755 1040 m 0
 755 1152 715 1245 608 1245 c 1
 529 1244 459 1184 400 1064 c 0
 381 1027 366 985 353 939 c 1
 70 1123 l 1
 71 1206 126 1275 232 1330 c 128
 338 1385 468 1412 623 1412 c 0
 878 1412 1042 1338 1116 1190 c 0
 1142 1138 1155 1082 1155 1022 c 128
 1155 962 1145 906 1124 854 c 128
 1103 802 1068 746 1017 686 c 0
 911 560 735 417 489 258 c 1
 772 258 l 130
 842 258 886 257 905 256 c 1
 939 311 976 384 1016 477 c 1
 1195 460 l 1
 1192 279 1188 130 1181 12 c 1
 1101 4 983 0 827 0 c 2
 195 0 l 2
 93 0 62 30 62 123 c 0
 62 141 63 162 65 185 c 1
 406 498 603 685 655 746 c 0
 722 825 755 923 755 1040 c 0
EndSplineSet
EndChar

StartChar: three
Encoding: 51 51 41
Width: 1218
GlyphClass: 2
Flags: HW
LayerCount: 2
Fore
SplineSet
762 1075 m 0
 762 1162 680 1223 592 1223 c 128
 505 1223 455 1202 407 1162 c 0
 355 1118 319 1057 298 979 c 1
 46 1146 l 1
 154 1330 310 1412 577 1412 c 128
 844 1412 1094 1309 1093 1062 c 0
 1092 937 1029 849 902 798 c 0
 863 783 822 770 778 761 c 1
 986 733 1142 596 1142 371 c 0
 1142 94 874 -31 576 -32 c 128
 405 -32 242 5 85 80 c 1
 85 430 l 1
 294 411 l 1
 333 236 412 148 531 148 c 0
 669 148 734 241 734 381 c 0
 734 553 642 639 458 639 c 2
 307 639 l 1
 317 799 l 1
 431 808 l 1
 573 817 762 934 762 1075 c 0
EndSplineSet
EndChar

StartChar: four
Encoding: 52 52 42
Width: 1269
GlyphClass: 2
Flags: HW
LayerCount: 2
Fore
SplineSet
804 1387 m 130
 910 1387 982 1387 982 1289 c 2
 982 520 l 1
 1237 520 l 1
 1237 434 l 2
 1237 377 1195 349 1112 349 c 2
 982 349 l 1
 982 259 l 2
 982 230 984 199 987 167 c 1
 1175 167 l 1
 1175 -11 l 1
 1016 -4 892 0 802 0 c 128
 712 0 573 -4 384 -11 c 1
 384 167 l 1
 570 167 l 1
 574 185 576 216 576 259 c 2
 576 349 l 1
 112 349 l 1
 52 450 22 533 22 597 c 1
 562 1388 l 1
 628 1387 l 1
 804 1387 l 130
576 520 m 1
 576 1074 l 1
 206 520 l 1
 576 520 l 1
EndSplineSet
EndChar

StartChar: five
Encoding: 53 53 43
Width: 1199
GlyphClass: 2
Flags: HW
LayerCount: 2
Fore
SplineSet
1016 1267 m 1
 959 1188 866 1177 728 1177 c 128
 645 1177 561 1181 474 1190 c 1
 474 862 l 1
 553 889 625 903 690 903 c 128
 827 903 931 851 998 777 c 1
 1074 695 1112 592 1111 468 c 1
 1111 305 1053 181 937 94 c 0
 708 -76 347 -41 74 83 c 1
 74 437 l 1
 288 417 l 1
 299 340 312 269 326 204 c 1
 389 179 443 166 488 166 c 0
 628 166 698 260 698 449 c 0
 698 618 646 702 541 702 c 0
 481 702 405 675 312 621 c 1
 275 631 204 647 98 669 c 1
 98 1310 l 1
 155 1365 241 1388 349 1388 c 2
 455 1388 l 1
 562 1387 l 1
 676 1387 l 2
 736 1387 847 1398 1008 1421 c 1
 1016 1267 l 1
EndSplineSet
EndChar

StartChar: six
Encoding: 54 54 44
Width: 1260
GlyphClass: 2
Flags: HW
LayerCount: 2
Fore
SplineSet
674 675 m 1
 637 675 578 652 498 607 c 1
 498 531 l 1
 499 464 l 1
 499 452 l 1
 498 309 527 215 586 170 c 0
 605 155 626 148 651 148 c 0
 691 148 723 171 748 217 c 128
 773 263 786 331 786 421 c 0
 786 500 781 554 771 584 c 0
 752 641 720 671 674 675 c 1
74 620 m 0
 74 1097 258 1412 715 1412 c 0
 900 1412 1034 1386 1118 1335 c 1
 1118 963 l 1
 886 963 l 1
 854 1209 l 1
 782 1218 730 1223 698 1223 c 128
 633 1223 592 1195 566 1155 c 0
 535 1106 512 988 496 802 c 1
 590 845 676 866 755 866 c 128
 1041 866 1202 699 1202 423 c 0
 1202 136 942 -22 641 -22 c 0
 354 -22 176 99 108 342 c 0
 85 422 74 515 74 620 c 0
EndSplineSet
EndChar

StartChar: seven
Encoding: 55 55 45
Width: 1243
GlyphClass: 2
Flags: HW
LayerCount: 2
Fore
SplineSet
500 -11 m 128
 390 -11 324 -4 283 56 c 0
 283 57 287 65 294 80 c 2
 835 1197 l 1
 467 1197 l 2
 450 1197 412 1195 354 1192 c 1
 350 1160 348 1138 348 1125 c 2
 341 930 l 1
 127 930 l 1
 72 1348 l 1
 199 1374 305 1387 390 1387 c 2
 1161 1387 l 1
 1179 1374 1188 1343 1188 1296 c 2
 1188 1209 l 1
 765 185 l 2
 718 71 643 -11 500 -11 c 128
EndSplineSet
EndChar

StartChar: eight
Encoding: 56 56 46
Width: 1219
GlyphClass: 2
Flags: HW
LayerCount: 2
Fore
SplineSet
598 1224 m 128
 504 1224 476 1135 476 1037 c 0
 476 927 528 850 631 807 c 1
 692 844 722 920 722 1037 c 0
 722 1124 699 1182 653 1210 c 0
 638 1219 619 1224 598 1224 c 128
452 362 m 0
 452 254 497 167 601 167 c 128
 709 167 754 249 754 363 c 128
 754 496 670 580 561 608 c 1
 488 557 452 475 452 362 c 0
599 -22 m 0
 323 -22 49 83 49 333 c 0
 49 487 140 612 322 707 c 1
 182 781 69 878 69 1048 c 1
 67 1293 335 1412 599 1412 c 0
 866 1412 1124 1293 1124 1044 c 128
 1124 931 1043 820 880 712 c 1
 1008 663 1096 587 1144 486 c 0
 1161 451 1169 407 1169 352 c 128
 1169 223 1089 125 1002 71 c 0
 902 9 768 -22 599 -22 c 0
EndSplineSet
EndChar

StartChar: nine
Encoding: 57 57 47
Width: 1260
GlyphClass: 2
Flags: HW
LayerCount: 2
Fore
SplineSet
762 753 m 1
 763 838 l 1
 763 973 756 1062 741 1106 c 128
 716 1179 690 1223 604 1223 c 128
 568 1223 537 1202 512 1159 c 128
 487 1116 474 1053 474 969 c 0
 474 890 479 836 488 805 c 128
 505 750 526 715 592 715 c 128
 622 715 679 728 762 753 c 1
1186 770 m 0
 1186 301 1019 -22 574 -22 c 128
 370 -22 229 4 152 55 c 1
 152 427 l 1
 384 427 l 1
 416 190 l 1
 475 175 526 167 568 167 c 128
 754 167 747 417 764 588 c 1
 670 545 584 524 505 524 c 128
 219 524 58 691 58 967 c 0
 58 1254 318 1412 619 1412 c 0
 906 1412 1084 1290 1152 1047 c 0
 1175 967 1186 875 1186 770 c 0
EndSplineSet
EndChar

StartChar: colon
Encoding: 58 58 48
Width: 636
GlyphClass: 2
Flags: HW
LayerCount: 2
Fore
SplineSet
115 169 m 0
 115 282 202 359 315 358 c 0
 427 357 514 279 515 167 c 1
 515 47 435 -22 315 -22 c 128
 193 -22 116 52 115 169 c 0
320 1005 m 0
 431 1005 520 926 520 815 c 0
 520 695 440 626 320 626 c 128
 198 626 120 699 120 817 c 0
 120 930 206 1006 320 1005 c 0
EndSplineSet
EndChar

StartChar: semicolon
Encoding: 59 59 49
Width: 642
GlyphClass: 2
Flags: HW
LayerCount: 2
Fore
SplineSet
245 -90 m 1
 168 -74 100 -9 100 79 c 128
 100 218 197 281 330 282 c 128
 460 283 543 189 543 62 c 128
 543 -69 509 -145 448 -221 c 0
 389 -296 296 -372 168 -451 c 1
 74 -358 l 1
 151 -284 208 -195 245 -90 c 1
113 817 m 0
 113 930 200 1007 313 1006 c 0
 425 1005 512 927 513 815 c 1
 513 695 433 626 313 626 c 128
 191 626 114 700 113 817 c 0
EndSplineSet
EndChar

StartChar: less
Encoding: 60 60 50
Width: 1454
GlyphClass: 2
Flags: HW
LayerCount: 2
Fore
SplineSet
518 544 m 1
 881 377 1157 251 1346 167 c 1
 1329 100 l 1
 1324 86 1287 53 1219 0 c 1
 1170 15 1014 82 751 202 c 128
 488 322 274 419 107 495 c 1
 107 597 l 1
 770 893 1141 1057 1221 1089 c 1
 1287 1038 1323 1005 1328 992 c 1
 1347 925 l 1
 518 544 l 1
EndSplineSet
EndChar

StartChar: equal
Encoding: 61 61 51
Width: 1361
GlyphClass: 2
Flags: HW
LayerCount: 2
Fore
SplineSet
104 301 m 1
 104 390 l 2
 104 434 117 462 144 474 c 0
 166 483 214 488 289 488 c 2
 1257 488 l 1
 1257 399 l 2
 1257 377 1246 359 1226 344 c 128
 1206 329 1174 314 1130 301 c 1
 104 301 l 1
104 755 m 2
 104 835 163 852 250 852 c 2
 1257 852 l 1
 1257 764 l 1
 1258 728 1233 701 1182 682 c 0
 1167 677 1151 671 1134 665 c 1
 104 665 l 1
 104 755 l 2
EndSplineSet
EndChar

StartChar: greater
Encoding: 62 62 52
Width: 1453
GlyphClass: 2
Flags: HW
LayerCount: 2
Fore
SplineSet
233 1089 m 1
 313 1057 684 893 1347 597 c 1
 1347 495 l 1
 666 184 296 19 235 0 c 1
 167 53 130 86 125 100 c 1
 108 167 l 1
 391 291 645 410 936 544 c 1
 107 925 l 1
 126 992 l 1
 131 1005 167 1038 233 1089 c 1
EndSplineSet
EndChar

StartChar: question
Encoding: 63 63 53
Width: 1078
GlyphClass: 2
Flags: HW
LayerCount: 2
Fore
SplineSet
353 126 m 1
 354 215 416 286 520 286 c 128
 619 286 685 210 685 118 c 0
 685 19 611 -31 525 -31 c 0
 426 -31 353 28 353 126 c 1
646 652 m 128
 608 608 611 570 611 480 c 128
 611 432 613 393 618 360 c 1
 456 360 l 1
 387 397 337 445 307 504 c 0
 296 525 291 547 291 570 c 128
 291 622 311 662 336 695 c 0
 358 724 388 757 427 792 c 128
 466 827 493 855 510 875 c 0
 552 924 587 988 586 1070 c 128
 585 1163 536 1224 446 1224 c 128
 404 1224 349 1215 281 1198 c 1
 281 1062 l 1
 78 1062 l 1
 78 1334 l 1
 237 1386 359 1412 446 1412 c 128
 609 1412 717 1387 808 1321 c 0
 895 1258 938 1170 939 1058 c 0
 939 961 886 865 779 770 c 0
 733 730 678 689 646 652 c 128
EndSplineSet
EndChar

StartChar: at
Encoding: 64 64 54
Width: 1746
GlyphClass: 2
Flags: HW
LayerCount: 2
Fore
SplineSet
1102 891 m 1
 1090 946 1056 973 1001 973 c 0
 931 973 866 926 806 833 c 0
 747 742 717 641 717 531 c 0
 717 448 741 393 790 364 c 0
 806 355 826 350 850 350 c 128
 905 350 944 386 969 421 c 0
 1004 470 1039 572 1072 727 c 0
 1084 782 1094 837 1102 891 c 1
787 215 m 0
 607 216 507 346 507 531 c 0
 507 700 557 838 657 945 c 0
 749 1043 855 1092 976 1092 c 0
 1048 1092 1103 1060 1141 996 c 1
 1206 1055 l 1
 1260 1049 1298 1038 1320 1021 c 1
 1300 957 1244 691 1228 626 c 0
 1209 544 1200 486 1200 450 c 128
 1201 384 1223 345 1287 345 c 128
 1364 345 1420 406 1456 462 c 0
 1511 547 1538 647 1537 764 c 1
 1537 923 1481 1055 1370 1160 c 0
 1258 1265 1115 1318 940 1319 c 1
 755 1319 601 1255 478 1126 c 0
 353 995 290 826 290 619 c 0
 290 428 352 270 475 147 c 128
 598 24 750 -38 932 -38 c 128
 1114 -38 1285 11 1444 108 c 1
 1497 10 l 1
 1314 -107 1125 -166 931 -166 c 0
 589 -166 326 0 192 226 c 0
 120 346 84 479 84 626 c 0
 84 866 168 1064 334 1219 c 128
 500 1374 703 1452 942 1452 c 0
 1162 1452 1341 1387 1478 1258 c 0
 1614 1129 1682 963 1682 759 c 0
 1682 541 1578 343 1422 256 c 128
 1373 228 1322 215 1269 215 c 0
 1162 215 1087 266 1046 368 c 1
 977 266 891 215 787 215 c 0
EndSplineSet
EndChar

StartChar: A
Encoding: 65 65 55
Width: 1668
GlyphClass: 2
Flags: HW
LayerCount: 2
Fore
SplineSet
932 543 m 1
 803 1006 l 1
 799 1006 l 1
 668 543 l 1
 932 543 l 1
584 186 m 128
 584 127 623 126 681 118 c 1
 656 -11 l 1
 470 6 159 4 7 -11 c 1
 44 122 l 1
 70 126 l 2
 112 133 140 143 154 156 c 0
 171 173 189 204 207 250 c 0
 315 538 463 917 651 1387 c 1
 834 1387 l 2
 939 1387 1009 1373 1044 1346 c 0
 1059 1335 1069 1320 1076 1301 c 0
 1282 748 1324 627 1493 176 c 0
 1499 159 1502 150 1502 148 c 1
 1642 128 l 1
 1668 -11 l 1
 1317 0 l 1
 1253 0 1190 -3 1117 -5 c 2
 956 -11 l 1
 956 113 l 1
 992 119 1048 112 1048 151 c 0
 1048 156 1047 164 1044 173 c 2
 974 390 l 1
 638 390 l 1
 598 256 l 2
 589 228 584 205 584 186 c 128
EndSplineSet
EndChar

StartChar: B
Encoding: 66 66 56
Width: 1493
GlyphClass: 2
Flags: HW
LayerCount: 2
Fore
SplineSet
969 998 m 128
 969 1145 905 1211 759 1211 c 2
 708 1211 l 1
 688 1210 l 1
 688 772 l 1
 738 772 l 2
 886 772 969 850 969 998 c 128
998 375 m 0
 998 551 910 608 729 609 c 1
 688 608 l 1
 688 167 l 1
 746 164 786 162 807 162 c 0
 934 162 998 233 998 375 c 0
206 167 m 2
 254 167 259 218 259 278 c 2
 259 1092 l 2
 259 1137 257 1172 252 1197 c 1
 50 1197 l 1
 50 1364 l 1
 301 1379 551 1387 801 1387 c 0
 1201 1387 1401 1260 1401 1006 c 0
 1401 912 1354 831 1259 762 c 0
 1228 739 1192 720 1151 703 c 1
 1340 651 1434 544 1434 382 c 0
 1434 225 1364 117 1223 58 c 0
 1116 13 944 -10 708 -10 c 128
 472 -10 257 -3 64 11 c 1
 64 167 l 1
 206 167 l 2
EndSplineSet
EndChar

StartChar: C
Encoding: 67 67 57
Width: 1477
GlyphClass: 2
Flags: HW
LayerCount: 2
Fore
SplineSet
84 660 m 0
 84 1148 374 1412 865 1412 c 0
 978 1412 1065 1405 1127 1390 c 0
 1232 1365 1322 1330 1395 1284 c 1
 1331 990 l 1
 1028 1032 l 1
 1007 1222 l 1
 960 1234 916 1240 875 1240 c 0
 767 1240 684 1196 625 1108 c 128
 566 1020 537 886 537 707 c 0
 537 341 648 158 869 158 c 0
 1002 158 1136 189 1269 251 c 0
 1308 269 1347 288 1386 308 c 1
 1411 112 l 1
 1244 14 1054 -35 843 -35 c 0
 385 -34 84 211 84 660 c 0
EndSplineSet
EndChar

StartChar: D
Encoding: 68 68 58
Width: 1675
GlyphClass: 2
Flags: HW
LayerCount: 2
Fore
SplineSet
768 1211 m 1
 726 1210 l 1
 683 1210 l 1
 683 171 l 1
 689 170 695 170 700 170 c 2
 717 170 l 2
 944 170 1079 271 1120 473 c 0
 1133 537 1140 608 1140 688 c 128
 1140 841 1126 975 1071 1069 c 0
 1015 1164 917 1211 778 1211 c 2
 768 1211 l 1
248 151 m 1
 252 193 254 235 254 278 c 2
 254 1093 l 2
 254 1138 251 1176 245 1206 c 1
 50 1206 l 1
 50 1366 l 1
 276 1380 530 1387 813 1387 c 0
 1201 1387 1444 1258 1541 999 c 0
 1574 910 1591 805 1591 683 c 128
 1591 436 1509 268 1369 160 c 1
 1232 53 1038 0 786 0 c 2
 58 0 l 1
 58 151 l 1
 248 151 l 1
EndSplineSet
EndChar

StartChar: E
Encoding: 69 69 59
Width: 1443
GlyphClass: 2
Flags: HW
LayerCount: 2
Fore
SplineSet
864 777 m 2
 907 777 918 851 932 911 c 1
 1083 911 l 1
 1083 476 l 1
 1074 475 1064 475 1055 475 c 2
 932 475 l 1
 916 556 900 602 884 613 c 0
 879 617 872 619 864 619 c 2
 691 619 l 1
 691 167 l 1
 971 167 l 2
 1026 167 1066 171 1092 180 c 1
 1099 201 1110 262 1124 361 c 1
 1167 360 1209 359 1252 359 c 2
 1391 359 l 1
 1388 224 1383 109 1378 14 c 1
 1221 4 1093 -1 996 -1 c 2
 408 -1 l 1
 50 1 l 1
 50 167 l 1
 257 167 l 1
 260 195 262 221 262 245 c 2
 262 1111 l 2
 262 1144 260 1175 257 1203 c 1
 50 1203 l 1
 50 1363 l 1
 297 1379 493 1387 640 1387 c 2
 1269 1387 l 1
 1329 1388 l 1
 1384 1066 l 1
 1161 1038 l 1
 1154 1093 1141 1142 1120 1185 c 1
 1036 1197 965 1203 908 1203 c 2
 691 1203 l 1
 691 777 l 1
 864 777 l 2
EndSplineSet
EndChar

StartChar: F
Encoding: 70 70 60
Width: 1283
GlyphClass: 2
Flags: HW
LayerCount: 2
Fore
SplineSet
862 777 m 2
 905 777 916 851 930 911 c 1
 1081 911 l 1
 1081 476 l 1
 1041 475 l 1
 930 475 l 1
 914 556 898 602 882 613 c 0
 877 617 870 619 862 619 c 2
 661 619 l 1
 661 259 l 2
 661 230 663 199 666 167 c 1
 824 167 l 1
 824 -11 l 1
 673 -4 550 0 454 0 c 128
 358 0 223 -4 50 -11 c 1
 50 167 l 1
 226 167 l 1
 230 185 232 216 232 259 c 2
 232 1111 l 2
 232 1147 230 1178 227 1203 c 1
 50 1203 l 1
 50 1365 l 1
 273 1380 429 1387 520 1387 c 2
 920 1387 l 1
 1316 1386 l 1
 1351 1046 l 1
 1128 1028 l 1
 1120 1068 1108 1123 1091 1193 c 1
 1044 1200 1009 1203 985 1203 c 2
 661 1203 l 1
 661 777 l 1
 862 777 l 2
EndSplineSet
EndChar

StartChar: G
Encoding: 71 71 61
Width: 1504
GlyphClass: 2
Flags: HW
LayerCount: 2
Fore
SplineSet
91 662 m 0
 91 1170 420 1412 942 1412 c 0
 1091 1412 1230 1386 1358 1334 c 0
 1397 1318 1428 1301 1452 1283 c 1
 1388 987 l 1
 1083 1028 l 1
 1079 1092 1070 1164 1065 1220 c 1
 1006 1236 952 1244 903 1244 c 0
 663 1244 543 1057 543 682 c 0
 543 445 605 290 729 215 c 0
 771 190 822 177 882 177 c 128
 942 177 992 183 1034 196 c 1
 1034 405 l 2
 1034 450 1032 481 1027 499 c 1
 814 499 l 1
 814 624 l 1
 1009 649 1209 661 1414 661 c 2
 1458 661 l 1
 1458 136 l 1
 1293 31 1098 -22 874 -22 c 0
 411 -22 91 213 91 662 c 0
EndSplineSet
EndChar

StartChar: H
Encoding: 72 72 62
Width: 1759
GlyphClass: 2
Flags: HW
LayerCount: 2
Fore
SplineSet
827 -11 m 1
 676 -4 552 0 456 0 c 128
 360 0 226 -4 53 -11 c 1
 53 167 l 1
 229 167 l 1
 233 185 235 216 235 259 c 2
 235 1123 l 1
 232 1164 230 1195 227 1215 c 1
 50 1215 l 1
 50 1377 l 1
 190 1392 329 1399 466 1399 c 128
 603 1399 723 1394 824 1383 c 1
 824 1215 l 1
 666 1215 l 1
 663 1188 661 1163 661 1139 c 2
 661 805 l 1
 1097 805 l 1
 1097 1123 l 1
 1089 1215 l 1
 932 1215 l 1
 932 1377 l 1
 1072 1392 1211 1399 1348 1399 c 128
 1485 1399 1605 1394 1706 1383 c 1
 1706 1215 l 1
 1528 1215 l 1
 1525 1187 1523 1156 1523 1123 c 2
 1523 259 l 1
 1526 223 1528 192 1531 167 c 1
 1709 167 l 1
 1709 -11 l 1
 1549 -4 1421 0 1325 0 c 128
 1229 0 1099 -4 935 -11 c 1
 935 167 l 1
 1091 167 l 1
 1095 185 1097 216 1097 259 c 2
 1097 623 l 1
 664 623 l 1
 664 259 l 2
 664 230 666 199 669 167 c 1
 827 167 l 1
 827 -11 l 1
EndSplineSet
EndChar

StartChar: I
Encoding: 73 73 63
Width: 906
GlyphClass: 2
Flags: HW
LayerCount: 2
Fore
SplineSet
860 -11 m 1
 696 -4 564 0 463 0 c 128
 362 0 223 -4 46 -11 c 1
 46 167 l 1
 232 167 l 1
 236 185 238 216 238 259 c 2
 238 1123 l 2
 238 1159 236 1190 233 1215 c 1
 46 1215 l 1
 46 1377 l 1
 191 1392 335 1399 478 1399 c 128
 621 1399 748 1394 860 1383 c 1
 860 1215 l 1
 672 1215 l 1
 669 1187 667 1156 667 1123 c 2
 667 259 l 2
 667 230 669 199 672 167 c 1
 860 167 l 1
 860 -11 l 1
EndSplineSet
EndChar

StartChar: J
Encoding: 74 74 64
Width: 1015
GlyphClass: 2
Flags: HW
LayerCount: 2
Fore
SplineSet
823 216 m 2
 823 -90 662 -276 362 -276 c 128
 217 -276 101 -258 16 -221 c 1
 16 -198 21 -134 30 -30 c 2
 44 143 l 1
 288 143 l 1
 302 -93 l 1
 320 -101 337 -105 353 -105 c 0
 422 -105 457 -69 457 2 c 0
 457 44 451 87 438 130 c 2
 403 250 l 2
 396 273 393 293 393 312 c 2
 393 1124 l 2
 393 1160 391 1191 388 1216 c 1
 201 1216 l 1
 201 1378 l 1
 346 1393 490 1400 633 1400 c 128
 776 1400 903 1395 1015 1384 c 1
 1015 1216 l 1
 827 1216 l 1
 824 1197 823 1167 823 1124 c 2
 823 216 l 2
EndSplineSet
EndChar

StartChar: K
Encoding: 75 75 65
Width: 1802
GlyphClass: 2
Flags: HW
LayerCount: 2
Fore
SplineSet
864 -11 m 1
 700 -4 568 0 467 0 c 128
 366 0 227 -4 50 -11 c 1
 50 167 l 1
 236 167 l 1
 240 185 242 216 242 259 c 2
 242 1123 l 2
 242 1159 240 1190 237 1215 c 1
 50 1215 l 1
 50 1377 l 1
 195 1392 339 1399 482 1399 c 128
 625 1399 752 1394 864 1383 c 1
 864 1215 l 1
 676 1215 l 1
 673 1187 671 1156 671 1123 c 2
 671 259 l 2
 671 230 673 199 676 167 c 1
 864 167 l 1
 864 -11 l 1
1802 -11 m 1
 1660 -4 1545 0 1458 0 c 128
 1371 0 1218 -4 998 -11 c 1
 988 167 l 1
 1065 167 l 1
 1050 201 1041 229 1020 259 c 2
 702 728 l 1
 1082 1123 l 2
 1133 1175 1161 1206 1168 1215 c 1
 981 1215 l 1
 972 1377 l 1
 1129 1392 1259 1399 1360 1399 c 0
 1545 1399 1686 1394 1782 1383 c 1
 1705 1215 l 1
 1517 1215 l 1
 1502 1202 1470 1171 1421 1123 c 2
 1125 832 l 1
 1559 259 l 2
 1574 238 1603 207 1645 167 c 1
 1753 167 l 1
 1802 -11 l 1
EndSplineSet
EndChar

StartChar: L
Encoding: 76 76 66
Width: 1378
GlyphClass: 2
Flags: HW
LayerCount: 2
Fore
SplineSet
50 1377 m 1
 195 1392 339 1399 482 1399 c 128
 625 1399 753 1394 865 1383 c 1
 865 1215 l 1
 678 1215 l 1
 673 1196 671 1167 671 1129 c 2
 671 167 l 1
 900 167 l 1
 959 166 999 197 1022 258 c 1
 1045 328 1066 393 1089 471 c 1
 1324 439 l 1
 1282 0 l 1
 861 0 l 2
 433 0 185 -4 116 -12 c 1
 116 167 l 1
 238 167 l 1
 241 227 242 280 242 326 c 2
 242 1129 l 2
 242 1160 240 1188 237 1215 c 1
 50 1215 l 1
 50 1377 l 1
EndSplineSet
EndChar

StartChar: M
Encoding: 77 77 67
Width: 2220
GlyphClass: 2
Flags: HW
LayerCount: 2
Fore
SplineSet
153 1382 m 1
 324 1393 454 1399 541 1399 c 0
 672 1399 769 1391 833 1376 c 1
 875 1247 1065 693 1104 577 c 1
 1274 1078 l 2
 1336 1260 1371 1359 1378 1376 c 1
 1439 1391 1526 1399 1636 1399 c 128
 1746 1399 1887 1393 2058 1382 c 1
 2058 1215 l 1
 1865 1215 l 1
 1886 947 1917 663 1943 400 c 0
 1956 260 1966 182 1971 167 c 1
 2156 167 l 1
 2174 -16 l 1
 1947 4 1691 6 1408 -11 c 1
 1420 167 l 1
 1536 167 l 1
 1483 757 l 1
 1414 515 1341 263 1263 2 c 1
 894 2 l 1
 806 252 718 497 628 760 c 1
 606 560 584 364 566 167 c 1
 754 167 l 1
 736 -11 l 1
 589 -4 472 0 383 0 c 128
 294 0 183 -5 50 -16 c 1
 68 167 l 1
 253 167 l 1
 359 1151 l 2
 360 1154 360 1158 360 1162 c 2
 360 1172 l 2
 360 1185 359 1199 357 1215 c 1
 153 1215 l 1
 153 1382 l 1
EndSplineSet
EndChar

StartChar: N
Encoding: 78 78 68
Width: 1736
GlyphClass: 2
Flags: HW
LayerCount: 2
Fore
SplineSet
799 -13 m 1
 546 2 297 2 50 -13 c 1
 50 167 l 1
 256 167 l 1
 260 184 262 214 262 259 c 2
 262 1123 l 2
 262 1156 260 1187 257 1215 c 1
 50 1215 l 1
 50 1370 l 1
 188 1389 300 1399 386 1399 c 0
 504 1399 601 1392 677 1377 c 1
 811 1172 986 911 1202 595 c 1
 1202 1123 l 2
 1202 1168 1199 1200 1194 1217 c 1
 990 1217 l 1
 990 1381 l 1
 1067 1393 1175 1399 1316 1399 c 128
 1457 1399 1582 1395 1690 1386 c 1
 1690 1217 l 1
 1508 1217 l 1
 1505 1194 1503 1163 1503 1125 c 2
 1503 0 l 1
 1270 0 l 2
 1228 0 1170 4 1095 11 c 1
 595 791 l 1
 595 262 l 1
 601 167 l 1
 799 167 l 1
 799 -13 l 1
EndSplineSet
EndChar

StartChar: O
Encoding: 79 79 69
Width: 1623
GlyphClass: 2
Flags: HW
LayerCount: 2
Fore
SplineSet
1542 688 m 0
 1542 232 1257 -22 812 -22 c 0
 364 -22 81 244 81 689 c 0
 80 1143 357 1412 812 1412 c 0
 1264 1412 1542 1140 1542 688 c 0
533 686 m 0
 533 340 626 167 812 167 c 0
 901 167 969 210 1018 296 c 128
 1067 382 1091 513 1091 690 c 128
 1091 867 1067 1000 1019 1089 c 128
 971 1178 903 1223 814 1223 c 128
 725 1223 655 1179 606 1090 c 128
 557 1001 533 867 533 686 c 0
EndSplineSet
EndChar

StartChar: P
Encoding: 80 80 70
Width: 1426
GlyphClass: 2
Flags: HW
LayerCount: 2
Fore
SplineSet
940 970 m 128
 940 1139 874 1215 706 1215 c 2
 693 1215 l 1
 693 720 l 1
 716 720 l 2
 879 720 940 804 940 970 c 128
53 1379 m 1
 253 1392 442 1399 618 1399 c 128
 794 1399 920 1393 997 1381 c 128
 1074 1369 1140 1347 1196 1316 c 0
 1316 1249 1376 1135 1376 974 c 0
 1376 839 1326 734 1226 660 c 128
 1126 586 974 549 773 549 c 2
 695 549 l 1
 695 343 l 1
 694 265 l 1
 694 250 l 1
 700 167 l 1
 898 167 l 1
 898 -13 l 1
 613 2 331 2 50 -13 c 1
 50 167 l 1
 256 167 l 1
 261 192 263 223 263 259 c 2
 263 1128 l 2
 263 1163 261 1192 258 1215 c 1
 53 1215 l 1
 53 1379 l 1
EndSplineSet
EndChar

StartChar: Q
Encoding: 81 81 71
Width: 1702
GlyphClass: 2
Flags: HW
LayerCount: 2
Fore
SplineSet
543 686 m 0
 543 340 636 167 822 167 c 0
 911 167 979 210 1028 296 c 128
 1077 382 1101 513 1101 690 c 128
 1101 867 1077 1000 1029 1089 c 128
 981 1178 913 1223 824 1223 c 128
 735 1223 665 1179 616 1090 c 128
 567 1001 543 867 543 686 c 0
1552 689 m 0
 1552 335 1378 98 1082 12 c 1
 1125 -22 1177 -39 1238 -39 c 0
 1350 -39 1458 -25 1563 4 c 1
 1611 -155 l 1
 1435 -217 1273 -248 1126 -248 c 0
 950 -248 804 -199 688 -102 c 0
 651 -70 615 -34 581 7 c 1
 281 86 91 320 91 689 c 0
 90 1143 367 1412 822 1412 c 0
 1273 1412 1552 1140 1552 689 c 0
EndSplineSet
EndChar

StartChar: R
Encoding: 82 82 72
Width: 1571
GlyphClass: 2
Flags: HW
LayerCount: 2
Fore
SplineSet
954 983 m 0
 954 1150 888 1216 721 1215 c 1
 692 1215 l 1
 692 739 l 1
 743 739 l 2
 884 739 954 820 954 983 c 0
1563 -1 m 1
 1475 -8 1398 -20 1300 -20 c 128
 1042 -20 963 184 907 384 c 128
 886 460 846 573 777 572 c 1
 692 572 l 1
 692 259 l 2
 692 230 694 199 697 167 c 1
 835 167 l 1
 835 -11 l 1
 693 -4 576 0 484 0 c 128
 392 0 259 -4 88 -11 c 1
 88 167 l 1
 254 167 l 1
 258 185 260 216 260 259 c 2
 260 1127 l 2
 260 1162 258 1192 255 1215 c 1
 50 1215 l 1
 50 1382 l 1
 291 1393 478 1399 610 1399 c 128
 742 1399 835 1398 890 1394 c 128
 1165 1376 1390 1279 1390 991 c 0
 1390 840 1281 727 1064 651 c 1
 1167 605 1241 546 1288 474 c 0
 1321 423 1356 330 1395 193 c 1
 1563 193 l 1
 1563 -1 l 1
EndSplineSet
EndChar

StartChar: S
Encoding: 83 83 73
Width: 1304
GlyphClass: 2
Flags: HW
LayerCount: 2
Fore
SplineSet
75 1032 m 0
 75 1307 375 1412 679 1412 c 0
 879 1412 1039 1369 1160 1283 c 1
 1098 990 l 1
 795 1032 l 1
 786 1097 777 1165 768 1229 c 1
 728 1237 695 1241 668 1241 c 0
 559 1241 504 1197 504 1109 c 0
 504 980 592 925 692 882 c 128
 865 806 1026 744 1140 612 c 0
 1195 548 1222 480 1222 410 c 128
 1222 257 1158 162 1065 94 c 0
 958 16 817 -23 640 -22 c 1
 438 -22 206 33 64 130 c 1
 144 436 l 1
 420 383 l 1
 425 308 432 242 440 185 c 1
 507 170 563 162 610 162 c 0
 728 162 787 212 787 312 c 0
 787 379 763 432 715 471 c 0
 682 497 602 537 474 591 c 128
 346 645 247 709 178 784 c 128
 109 859 75 941 75 1032 c 0
EndSplineSet
EndChar

StartChar: T
Encoding: 84 84 74
Width: 1438
GlyphClass: 2
Flags: HW
LayerCount: 2
Fore
SplineSet
1128 -11 m 1
 964 -4 832 0 730 0 c 128
 628 0 488 -4 311 -11 c 1
 311 167 l 1
 497 167 l 1
 501 185 503 216 503 259 c 2
 503 1203 l 1
 248 1203 l 1
 236 1115 229 1051 227 1011 c 1
 25 1011 l 1
 16 1369 l 1
 51 1382 143 1388 294 1388 c 2
 1144 1388 l 2
 1295 1388 1387 1382 1422 1369 c 1
 1413 1011 l 1
 1211 1011 l 1
 1207 1043 1205 1076 1201 1109 c 2
 1191 1205 l 1
 935 1205 l 1
 935 259 l 2
 935 230 937 199 940 167 c 1
 1128 167 l 1
 1128 -11 l 1
EndSplineSet
EndChar

StartChar: U
Encoding: 85 85 75
Width: 1705
GlyphClass: 2
Flags: HW
LayerCount: 2
Fore
SplineSet
1485 514 m 2
 1485 148 1214 -22 828 -22 c 0
 422 -22 219 178 219 578 c 2
 219 1123 l 2
 219 1159 217 1190 214 1215 c 1
 27 1215 l 1
 27 1387 l 1
 180 1395 330 1399 479 1399 c 128
 628 1399 739 1395 814 1387 c 1
 814 1215 l 1
 656 1215 l 1
 651 1186 649 1155 649 1123 c 2
 649 510 l 2
 649 346 691 240 776 191 c 0
 804 175 839 167 880 167 c 128
 971 167 1023 222 1054 288 c 1
 1083 353 1098 449 1099 577 c 1
 1099 1123 l 2
 1099 1159 1097 1190 1094 1215 c 1
 947 1215 l 1
 947 1387 l 1
 1061 1395 1192 1399 1340 1399 c 128
 1488 1399 1601 1395 1678 1387 c 1
 1678 1215 l 1
 1490 1215 l 1
 1487 1187 1485 1156 1485 1123 c 2
 1485 514 l 2
EndSplineSet
EndChar

StartChar: V
Encoding: 86 86 76
Width: 1746
GlyphClass: 2
Flags: HW
LayerCount: 2
Fore
SplineSet
0 1387 m 1
 123 1395 254 1399 394 1399 c 128
 534 1399 649 1395 736 1387 c 1
 781 1215 l 1
 653 1215 l 1
 664 1182 675 1153 685 1128 c 1
 923 452 l 1
 1129 1123 l 2
 1138 1150 1146 1181 1153 1215 c 1
 1025 1215 l 1
 1070 1387 l 1
 1145 1395 1245 1399 1371 1399 c 128
 1497 1399 1622 1395 1746 1387 c 1
 1722 1215 l 1
 1545 1215 l 1
 1536 1200 1510 1126 1468 993 c 128
 1375 700 1200 260 1064 -11 c 1
 872 -11 l 2
 761 -11 677 -2 649 74 c 1
 247 1123 l 2
 230 1167 214 1198 201 1215 c 1
 24 1215 l 1
 0 1387 l 1
EndSplineSet
EndChar

StartChar: W
Encoding: 87 87 77
Width: 2458
GlyphClass: 2
Flags: HW
LayerCount: 2
Fore
SplineSet
1215 696 m 1
 1148 421 1085 185 1024 -11 c 1
 752 -11 l 2
 669 -11 624 8 609 74 c 1
 247 1123 l 1
 234 1164 218 1195 201 1215 c 1
 24 1215 l 1
 0 1387 l 1
 115 1395 228 1399 340 1399 c 0
 511 1399 643 1395 736 1387 c 1
 781 1215 l 1
 653 1215 l 1
 685 1128 l 1
 883 452 l 1
 1048 1111 l 2
 1058 1148 1066 1192 1071 1244 c 2
 1078 1317 l 2
 1081 1348 1083 1371 1086 1387 c 1
 1291 1387 l 2
 1356 1387 1404 1357 1434 1296 c 0
 1443 1277 1451 1257 1458 1235 c 2
 1695 452 l 1
 1800 855 1863 1109 1885 1215 c 1
 1737 1215 l 1
 1782 1387 l 1
 1857 1395 1958 1399 2086 1399 c 128
 2214 1399 2338 1395 2458 1387 c 1
 2434 1215 l 1
 2255 1215 l 1
 2241 1169 l 1
 2087 650 1952 257 1836 -11 c 1
 1554 -11 l 2
 1474 -11 1435 8 1421 74 c 1
 1215 696 l 1
EndSplineSet
EndChar

StartChar: X
Encoding: 88 88 78
Width: 1728
GlyphClass: 2
Flags: HW
LayerCount: 2
Fore
SplineSet
692 -11 m 1
 379 5 259 0 16 -11 c 1
 40 167 l 1
 153 167 l 1
 170 168 188 178 206 195 c 128
 224 212 244 236 268 266 c 2
 601 680 l 1
 238 1139 l 2
 198 1190 158 1215 117 1215 c 2
 40 1215 l 1
 16 1387 l 1
 131 1395 242 1399 350 1399 c 128
 458 1399 530 1399 564 1398 c 1
 645 1398 739 1394 802 1387 c 1
 827 1215 l 1
 749 1215 l 2
 735 1215 728 1209 728 1198 c 0
 728 1182 739 1159 761 1128 c 2
 959 842 l 1
 1125 1123 l 2
 1141 1150 1149 1173 1149 1190 c 128
 1149 1207 1139 1215 1119 1215 c 2
 991 1215 l 1
 1036 1387 l 1
 1116 1395 1198 1399 1282 1399 c 128
 1366 1399 1422 1399 1452 1398 c 1
 1536 1398 1631 1393 1702 1387 c 1
 1678 1215 l 1
 1545 1215 l 1
 1511 1204 1473 1169 1430 1110 c 2
 1126 687 l 1
 1468 307 l 2
 1508 263 1561 169 1631 167 c 1
 1688 167 l 1
 1712 -11 l 1
 1548 -4 1426 0 1346 0 c 128
 1266 0 1129 -4 936 -11 c 1
 901 167 l 1
 1009 167 l 2
 1023 167 1030 173 1030 184 c 0
 1030 199 1019 220 997 248 c 2
 779 525 l 1
 603 253 l 2
 586 228 578 207 578 191 c 128
 578 175 588 167 609 167 c 2
 737 167 l 1
 692 -11 l 1
EndSplineSet
EndChar

StartChar: Y
Encoding: 89 89 79
Width: 1576
GlyphClass: 2
Flags: HW
LayerCount: 2
Fore
SplineSet
1220 -11 m 1
 1056 -4 924 0 822 0 c 128
 720 0 580 -4 403 -11 c 1
 403 147 l 1
 589 147 l 1
 592 170 594 194 594 217 c 2
 594 492 l 1
 217 1123 l 2
 202 1148 192 1169 180 1192 c 1
 171 1207 162 1214 151 1215 c 1
 24 1215 l 1
 0 1387 l 1
 131 1395 253 1399 366 1399 c 2
 470 1399 l 2
 579 1399 674 1395 756 1387 c 1
 771 1215 l 1
 643 1215 l 1
 661 1164 672 1135 675 1128 c 2
 883 752 l 1
 1059 1123 l 2
 1066 1139 1074 1170 1081 1215 c 1
 925 1215 l 1
 960 1387 l 1
 1043 1395 1138 1399 1247 1399 c 2
 1321 1399 l 2
 1400 1399 1485 1395 1576 1387 c 1
 1552 1215 l 1
 1405 1215 l 1
 1386 1190 1366 1137 1351 1109 c 128
 1244 914 1140 723 1027 513 c 1
 1027 239 l 2
 1027 210 1029 179 1032 147 c 1
 1220 147 l 1
 1220 -11 l 1
EndSplineSet
EndChar

StartChar: Z
Encoding: 90 90 80
Width: 1382
GlyphClass: 2
Flags: HW
LayerCount: 2
Fore
SplineSet
1197 1387 m 2
 1252 1387 1305 1362 1305 1313 c 2
 1305 1186 l 1
 558 180 l 1
 806 180 l 2
 868 180 932 185 997 195 c 1
 1023 307 1036 406 1036 493 c 1
 1144 490 1209 484 1299 478 c 1
 1302 355 1310 258 1310 145 c 0
 1310 129 1307 81 1300 1 c 1
 1145 0 1011 0 897 0 c 2
 402 0 l 1
 204 1 l 1
 170 1 l 2
 119 1 94 35 94 103 c 2
 94 219 l 1
 826 1197 l 1
 637 1197 l 2
 588 1197 515 1189 419 1172 c 1
 417 1165 415 1135 412 1082 c 1
 412 968 l 1
 109 968 l 1
 69 1373 l 1
 352 1382 549 1387 661 1387 c 2
 1197 1387 l 2
EndSplineSet
EndChar

StartChar: bracketleft
Encoding: 91 91 81
Width: 786
GlyphClass: 2
Flags: HW
LayerCount: 2
Fore
SplineSet
725 -126 m 2
 725 -181 683 -208 598 -208 c 2
 164 -208 l 1
 164 1475 l 1
 522 1475 l 2
 593 1475 639 1472 660 1466 c 0
 703 1453 725 1425 725 1384 c 2
 725 1325 l 1
 536 1325 l 1
 536 -57 l 1
 725 -57 l 1
 725 -126 l 2
EndSplineSet
EndChar

StartChar: backslash
Encoding: 92 92 82
Width: 1036
GlyphClass: 2
Flags: HW
LayerCount: 2
Fore
SplineSet
1036 -22 m 1
 775 -22 l 2
 694 -22 646 1 630 48 c 1
 0 1412 l 1
 263 1412 l 2
 350 1412 390 1390 413 1326 c 1
 1036 -22 l 1
EndSplineSet
EndChar

StartChar: bracketright
Encoding: 93 93 83
Width: 786
GlyphClass: 2
Flags: HW
LayerCount: 2
Fore
SplineSet
250 -57 m 1
 250 1325 l 1
 61 1325 l 1
 61 1476 l 1
 622 1476 l 1
 622 -208 l 1
 61 -208 l 1
 61 -57 l 1
 250 -57 l 1
EndSplineSet
EndChar

StartChar: asciicircum
Encoding: 94 94 84
Width: 1241
GlyphClass: 2
Flags: HW
LayerCount: 2
Fore
SplineSet
763 1389 m 1
 1131 736 l 2
 1153 697 1164 668 1164 652 c 128
 1164 617 1123 599 1091 594 c 1
 872 544 l 1
 620 1029 l 1
 368 544 l 1
 165 591 l 2
 105 604 76 609 76 656 c 128
 76 670 87 697 109 736 c 2
 477 1389 l 1
 763 1389 l 1
EndSplineSet
EndChar

StartChar: underscore
Encoding: 95 95 85
Width: 1095
GlyphClass: 2
Flags: HW
LayerCount: 2
Fore
SplineSet
-12 -224 m 2
 -12 -153 53 -138 137 -135 c 1
 1107 -135 l 1
 1107 -216 l 1
 1106 -270 1037 -293 972 -307 c 1
 -12 -307 l 1
 -12 -224 l 2
EndSplineSet
EndChar

StartChar: grave
Encoding: 96 96 86
Width: 1051
GlyphClass: 2
Flags: HW
LayerCount: 2
Fore
SplineSet
552 1112 m 1
 266 1482 l 1
 637 1482 l 1
 787 1112 l 1
 552 1112 l 1
EndSplineSet
EndChar

StartChar: a
Encoding: 97 97 87
Width: 1281
GlyphClass: 2
Flags: HW
LayerCount: 2
Fore
SplineSet
687 617 m 2
 687 711 692 855 635 855 c 0
 559 855 463 780 348 631 c 1
 107 785 l 1
 105 927 404 1005 565 1005 c 128
 748 1005 874 991 973 918 c 0
 1062 853 1106 747 1106 601 c 2
 1105 451 l 1
 1105 274 l 2
 1105 213 1107 171 1110 148 c 1
 1131 147 1154 146 1177 146 c 2
 1261 146 l 1
 1261 33 l 1
 1134 4 995 -10 844 -10 c 1
 795 23 755 61 724 102 c 1
 645 19 550 -22 439 -22 c 0
 270 -22 160 34 107 146 c 0
 90 183 81 226 81 274 c 0
 81 480 276 583 667 583 c 2
 687 583 l 1
 687 617 l 2
492 284 m 128
 492 199 511 138 583 138 c 128
 611 138 646 156 687 191 c 1
 687 464 l 1
 657 464 l 2
 552 464 492 389 492 284 c 128
EndSplineSet
EndChar

StartChar: b
Encoding: 98 98 88
Width: 1407
GlyphClass: 2
Flags: HW
LayerCount: 2
Fore
SplineSet
488 1412 m 2
 598 1412 620 1394 620 1298 c 2
 620 937 l 1
 714 982 802 1005 882 1005 c 128
 1044 1005 1151 942 1222 850 c 0
 1294 758 1330 644 1330 509 c 0
 1330 342 1272 211 1156 116 c 0
 1051 31 923 -12 772 -12 c 128
 621 -12 419 -1 166 19 c 1
 166 79 l 1
 189 128 201 211 201 330 c 2
 201 1251 l 1
 28 1251 l 1
 28 1364 l 1
 159 1396 292 1412 428 1412 c 2
 488 1412 l 2
786 836 m 0
 744 836 689 820 620 789 c 1
 620 140 l 1
 629 139 638 138 647 138 c 2
 745 138 l 2
 793 138 831 169 858 230 c 128
 885 291 899 382 899 504 c 0
 899 725 861 836 786 836 c 0
EndSplineSet
EndChar

StartChar: c
Encoding: 99 99 89
Width: 1158
GlyphClass: 2
Flags: HW
LayerCount: 2
Fore
SplineSet
71 486 m 1
 71 823 335 1005 686 1005 c 128
 860 1005 998 961 1101 872 c 1
 1084 674 l 1
 813 674 l 1
 759 782 710 836 665 836 c 0
 616 836 577 809 546 755 c 0
 514 698 498 618 497 516 c 1
 497 270 562 147 692 147 c 0
 797 147 895 169 984 213 c 0
 1013 228 1044 245 1076 265 c 1
 1093 105 l 1
 978 20 837 -22 669 -22 c 0
 323 -22 72 154 71 486 c 1
EndSplineSet
EndChar

StartChar: d
Encoding: 100 100 90
Width: 1391
GlyphClass: 2
Flags: HW
LayerCount: 2
Fore
SplineSet
659 836 m 0
 562 836 513 722 513 492 c 128
 513 262 560 147 655 147 c 0
 711 147 758 173 797 226 c 1
 797 802 l 1
 739 825 693 836 659 836 c 0
537 -22 m 0
 267 -22 79 200 79 474 c 0
 80 783 246 1004 547 1005 c 0
 625 1005 707 990 793 959 c 1
 793 1251 l 1
 620 1251 l 1
 620 1364 l 1
 751 1396 884 1412 1020 1412 c 2
 1080 1412 l 2
 1190 1412 1212 1394 1212 1298 c 2
 1212 244 l 2
 1212 198 1214 166 1218 147 c 1
 1384 147 l 1
 1384 35 l 1
 1261 4 1145 -11 1037 -11 c 0
 903 -11 856 16 826 105 c 1
 755 20 659 -22 537 -22 c 0
EndSplineSet
EndChar

StartChar: e
Encoding: 101 101 91
Width: 1207
GlyphClass: 2
Flags: HW
LayerCount: 2
Fore
SplineSet
501 442 m 1
 529 286 618 169 796 169 c 128
 880 169 974 194 1077 245 c 1
 1095 95 l 1
 986 17 844 -22 671 -22 c 0
 318 -22 72 156 72 499 c 0
 72 819 343 1005 675 1005 c 0
 936 1005 1144 866 1145 615 c 0
 1145 465 1076 442 914 442 c 2
 501 442 l 1
754 608 m 2
 754 728 728 845 635 845 c 0
 561 845 516 760 500 590 c 1
 754 590 l 1
 754 608 l 2
EndSplineSet
EndChar

StartChar: f
Encoding: 102 102 92
Width: 926
GlyphClass: 2
Flags: HW
LayerCount: 2
Fore
SplineSet
904 910 m 2
 904 853 859 824 768 824 c 2
 646 824 l 1
 646 259 l 2
 646 169 656 148 713 134 c 128
 732 129 759 125 792 120 c 1
 803 -11 l 1
 640 -5 l 1
 421 1 351 2 90 -11 c 1
 96 121 l 1
 120 124 l 2
 206 134 227 139 227 224 c 2
 227 824 l 1
 22 824 l 1
 22 898 l 2
 22 955 71 983 169 983 c 2
 227 983 l 1
 227 1047 l 2
 227 1290 394 1412 729 1412 c 0
 836 1412 939 1391 1040 1349 c 1
 1040 1125 l 1
 806 1125 l 1
 803 1137 799 1148 796 1158 c 2
 774 1224 l 2
 768 1242 765 1252 765 1254 c 1
 726 1254 700 1249 687 1240 c 0
 664 1222 651 1189 649 1140 c 1
 649 983 l 1
 904 983 l 1
 904 910 l 2
EndSplineSet
EndChar

StartChar: g
Encoding: 103 103 93
Width: 1149
GlyphClass: 2
Flags: HW
LayerCount: 2
Fore
SplineSet
442 626 m 0
 442 499 476 436 544 436 c 0
 617 436 653 499 653 626 c 0
 653 780 617 857 544 857 c 0
 476 857 442 780 442 626 c 0
367 -174 m 0
 367 -239 425 -271 542 -271 c 0
 683 -270 766 -245 790 -194 c 0
 798 -178 802 -159 802 -136 c 0
 802 -97 770 -78 705 -78 c 2
 412 -78 l 1
 382 -117 367 -149 367 -174 c 0
250 332 m 1
 140 374 64 475 64 622 c 128
 64 763 115 854 198 914 c 0
 282 975 399 1005 549 1005 c 0
 636 1005 713 993 778 968 c 1
 1136 988 l 1
 1136 825 l 1
 935 825 l 1
 992 786 1021 722 1021 635 c 0
 1021 470 931 364 752 316 c 0
 692 300 631 292 568 292 c 128
 505 292 450 294 402 298 c 1
 392 285 387 266 387 241 c 128
 387 189 417 177 470 177 c 2
 813 177 l 2
 997 177 1113 94 1113 -90 c 128
 1113 -299 972 -392 798 -428 c 0
 719 -445 614 -454 483 -454 c 0
 214 -454 79 -375 79 -217 c 0
 79 -176 94 -142 124 -112 c 128
 154 -82 205 -55 274 -32 c 1
 202 -3 144 56 144 155 c 0
 144 235 179 294 250 332 c 1
EndSplineSet
EndChar

StartChar: h
Encoding: 104 104 94
Width: 1421
GlyphClass: 2
Flags: HW
LayerCount: 2
Fore
SplineSet
473 1412 m 2
 583 1412 605 1394 605 1298 c 2
 605 882 l 1
 724 964 842 1005 961 1005 c 0
 1152 1005 1247 885 1247 644 c 2
 1247 248 l 2
 1247 205 1250 171 1256 147 c 1
 1389 147 l 1
 1402 23 l 1
 1275 -7 1157 -22 1048 -22 c 0
 897 -22 822 14 822 85 c 1
 828 274 l 1
 828 623 l 2
 828 709 817 765 794 790 c 0
 783 802 769 808 750 808 c 0
 708 808 660 785 605 739 c 1
 605 233 l 2
 605 198 610 174 620 163 c 0
 635 147 661 135 698 127 c 1
 709 -11 l 1
 506 -4 377 0 322 0 c 128
 267 0 183 -4 68 -11 c 1
 73 126 l 1
 120 133 148 143 159 154 c 0
 176 173 185 210 185 265 c 2
 185 1187 l 2
 185 1214 184 1235 182 1251 c 1
 13 1251 l 1
 13 1364 l 1
 144 1396 277 1412 413 1412 c 2
 473 1412 l 2
EndSplineSet
EndChar

StartChar: i
Encoding: 105 105 95
Width: 799
GlyphClass: 2
Flags: HW
LayerCount: 2
Fore
SplineSet
197 95 m 1
 203 284 l 1
 203 824 l 1
 31 824 l 1
 31 950 l 1
 166 979 288 994 398 994 c 0
 547 994 622 962 622 899 c 2
 622 239 l 2
 622 202 625 172 631 147 c 1
 764 147 l 1
 777 33 l 1
 648 4 530 -11 423 -11 c 0
 272 -11 197 24 197 95 c 1
385 1412 m 128
 520 1412 651 1376 649 1256 c 0
 648 1180 597 1132 496 1112 c 0
 372 1088 243 1115 193 1190 c 128
 180 1209 174 1232 174 1258 c 128
 174 1363 286 1412 385 1412 c 128
EndSplineSet
EndChar

StartChar: j
Encoding: 106 106 96
Width: 807
GlyphClass: 2
Flags: HW
LayerCount: 2
Fore
SplineSet
426 1443 m 128
 561 1443 689 1408 689 1287 c 1
 688 1210 637 1162 536 1142 c 0
 508 1137 479 1134 448 1134 c 128
 353 1134 270 1164 232 1222 c 128
 220 1241 214 1263 214 1289 c 128
 214 1394 326 1443 426 1443 c 128
662 -12 m 2
 662 -307 514 -454 219 -454 c 0
 86 -454 -9 -428 -64 -377 c 1
 -47 -76 l 1
 158 -105 l 1
 177 -278 l 1
 189 -284 199 -287 208 -287 c 0
 271 -287 303 -245 303 -160 c 0
 303 -155 300 -142 294 -120 c 128
 274 -51 243 93 243 147 c 2
 243 824 l 1
 70 824 l 1
 70 950 l 1
 202 979 321 994 428 994 c 0
 540 994 613 976 646 940 c 0
 657 928 662 914 662 899 c 2
 662 -12 l 2
EndSplineSet
EndChar

StartChar: k
Encoding: 107 107 97
Width: 1419
GlyphClass: 2
Flags: HW
LayerCount: 2
Fore
SplineSet
485 1413 m 1
 592 1413 604 1386 604 1298 c 2
 604 629 l 1
 821 777 l 1
 833 787 839 796 839 804 c 0
 839 825 809 835 749 835 c 1
 749 983 l 1
 1382 983 l 1
 1382 824 l 1
 1319 824 1271 817 1238 803 c 0
 1197 786 1145 755 1084 711 c 2
 937 603 l 1
 1207 189 l 1
 1233 163 l 1
 1256 144 l 1
 1290 120 1324 120 1372 120 c 2
 1404 120 l 1
 1429 -11 l 1
 1335 -4 1223 0 1094 0 c 2
 1034 0 l 2
 946 0 860 -4 777 -11 c 1
 772 120 l 1
 829 120 l 1
 636 453 l 1
 604 433 l 1
 604 212 l 1
 608 178 615 157 625 148 c 0
 639 136 668 126 713 117 c 1
 719 -11 l 1
 506 -4 374 0 320 0 c 128
 266 0 182 -4 67 -11 c 1
 73 119 l 1
 104 125 135 125 156 139 c 0
 175 151 184 180 185 225 c 1
 185 1187 l 2
 185 1214 184 1235 182 1251 c 1
 13 1251 l 1
 13 1364 l 1
 144 1396 277 1412 413 1412 c 2
 445 1412 l 1
 485 1413 l 1
EndSplineSet
EndChar

StartChar: l
Encoding: 108 108 98
Width: 790
GlyphClass: 2
Flags: HW
LayerCount: 2
Fore
SplineSet
394 1412 m 0
 517 1412 560 1399 604 1347 c 1
 604 227 l 2
 604 186 606 159 610 145 c 1
 769 145 l 1
 769 34 l 1
 648 5 530 -9 416 -9 c 128
 302 -9 224 21 181 82 c 1
 181 108 l 1
 184 175 186 233 186 283 c 2
 186 1175 l 2
 186 1206 185 1232 182 1252 c 1
 13 1252 l 1
 13 1366 l 1
 142 1397 269 1412 394 1412 c 0
EndSplineSet
EndChar

StartChar: m
Encoding: 109 109 99
Width: 2063
GlyphClass: 2
Flags: HW
LayerCount: 2
Fore
SplineSet
624 254 m 2
 624 168 629 141 692 126 c 1
 692 -11 l 1
 484 1 284 1 93 -11 c 1
 93 114 l 1
 181 114 205 144 205 223 c 2
 205 824 l 1
 33 824 l 1
 33 946 l 1
 155 978 294 994 449 994 c 0
 480 994 533 989 609 978 c 1
 610 934 611 898 611 869 c 1
 702 931 800 973 906 994 c 0
 941 1001 976 1004 1011 1005 c 1
 1120 1005 1196 967 1239 891 c 1
 1366 968 1481 1006 1585 1006 c 128
 1790 1006 1889 889 1889 686 c 2
 1889 248 l 2
 1889 205 1892 171 1898 147 c 1
 2031 147 l 1
 2044 23 l 1
 1917 -7 1799 -22 1690 -22 c 0
 1539 -22 1464 14 1464 85 c 1
 1470 274 l 1
 1470 603 l 2
 1470 714 1463 779 1450 796 c 0
 1445 803 1437 806 1426 807 c 1
 1369 807 1313 782 1260 733 c 1
 1260 207 l 1
 1264 173 1272 152 1283 143 c 0
 1298 131 1330 121 1378 113 c 1
 1378 -11 l 1
 1228 -5 l 2
 1128 -2 1091 0 982 0 c 128
 927 0 858 -4 775 -11 c 1
 775 126 l 1
 832 142 841 152 841 220 c 2
 841 603 l 2
 841 715 837 777 830 789 c 128
 823 801 817 807 810 807 c 0
 735 807 663 770 624 731 c 1
 624 254 l 2
EndSplineSet
EndChar

StartChar: n
Encoding: 110 110 100
Width: 1456
GlyphClass: 2
Flags: HW
LayerCount: 2
Fore
SplineSet
995 1006 m 0
 1189 1006 1282 876 1282 664 c 2
 1282 248 l 2
 1282 205 1285 171 1291 147 c 1
 1424 147 l 1
 1437 23 l 1
 1310 -7 1192 -22 1083 -22 c 0
 932 -22 857 14 857 85 c 1
 863 274 l 1
 863 649 l 2
 863 755 834 808 776 808 c 0
 731 808 680 785 624 739 c 1
 624 233 l 2
 624 198 629 174 639 163 c 0
 654 147 680 135 717 127 c 1
 728 -11 l 1
 525 -4 397 0 342 0 c 128
 287 0 202 -4 87 -11 c 1
 93 126 l 1
 140 133 168 143 179 154 c 0
 196 173 205 210 205 265 c 2
 205 824 l 1
 33 824 l 1
 33 950 l 1
 174 979 304 994 423 994 c 0
 456 994 516 989 604 978 c 1
 609 870 l 1
 746 961 875 1006 995 1006 c 0
EndSplineSet
EndChar

StartChar: o
Encoding: 111 111 101
Width: 1324
GlyphClass: 2
Flags: HW
LayerCount: 2
Fore
SplineSet
540 751 m 128
 515 694 503 607 503 490 c 128
 503 373 516 287 542 231 c 128
 568 175 608 147 664 147 c 128
 720 147 760 176 784 234 c 128
 808 292 821 379 821 494 c 0
 821 722 768 836 662 836 c 0
 605 836 565 808 540 751 c 128
663 1005 m 1
 1005 1006 1255 812 1255 480 c 0
 1255 304 1175 178 1072 100 c 0
 965 19 829 -22 663 -22 c 0
 327 -22 68 163 69 488 c 0
 70 657 131 789 254 882 c 1
 362 965 498 1006 663 1005 c 1
EndSplineSet
EndChar

StartChar: p
Encoding: 112 112 102
Width: 1379
GlyphClass: 2
Flags: HW
LayerCount: 2
Fore
SplineSet
1312 499 m 0
 1312 185 1126 -22 814 -22 c 0
 727 -22 656 -3 602 35 c 1
 602 -181 l 2
 602 -267 604 -290 650 -306 c 128
 665 -311 685 -316 711 -323 c 1
 722 -454 l 1
 607 -443 l 2
 547 -437 470 -432 376 -429 c 1
 309 -429 205 -437 65 -454 c 1
 71 -321 l 1
 103 -316 l 1
 170 -307 183 -289 183 -215 c 2
 183 824 l 1
 9 824 l 1
 9 947 l 1
 134 978 274 994 429 994 c 0
 473 994 524 989 583 979 c 1
 583 966 l 1
 584 929 l 1
 584 916 l 1
 663 975 746 1005 832 1005 c 128
 1003 1005 1113 958 1192 868 c 0
 1272 778 1312 655 1312 499 c 0
880 486 m 128
 880 712 847 825 782 825 c 128
 717 825 657 807 602 770 c 1
 602 411 l 2
 602 235 646 147 735 147 c 0
 832 147 880 260 880 486 c 128
EndSplineSet
EndChar

StartChar: q
Encoding: 113 113 103
Width: 1327
GlyphClass: 2
Flags: HW
LayerCount: 2
Fore
SplineSet
673 1005 m 0
 778 1005 967 994 1240 973 c 1
 1240 913 l 1
 1217 862 1205 779 1205 662 c 2
 1205 -213 l 1
 1204 -274 1227 -307 1272 -314 c 0
 1285 -316 1299 -319 1314 -323 c 1
 1325 -454 l 1
 1210 -443 l 2
 1114 -434 1035 -429 972 -429 c 128
 909 -429 808 -437 668 -454 c 1
 674 -321 l 1
 706 -316 l 1
 773 -307 786 -289 786 -215 c 2
 786 34 l 1
 695 -3 610 -22 530 -22 c 128
 368 -22 265 37 192 127 c 0
 115 221 76 340 76 483 c 0
 76 636 127 760 230 856 c 0
 337 955 484 1004 673 1005 c 0
786 466 m 1
 785 682 l 1
 785 823 l 1
 691 825 l 1
 661 825 l 2
 613 825 575 797 548 742 c 128
 521 687 507 603 507 492 c 0
 507 262 545 147 620 147 c 0
 665 147 719 159 784 184 c 1
 785 217 786 249 786 280 c 2
 786 466 l 1
EndSplineSet
EndChar

StartChar: r
Encoding: 114 114 104
Width: 1119
GlyphClass: 2
Flags: HW
LayerCount: 2
Fore
SplineSet
458 994 m 0
 487 994 534 989 598 978 c 1
 598 850 l 1
 690 953 806 1005 947 1005 c 0
 1004 1005 1055 998 1100 984 c 1
 1080 665 l 1
 873 665 l 1
 848 816 l 1
 796 816 753 805 718 784 c 0
 655 747 624 711 624 676 c 2
 624 258 l 2
 624 203 629 170 640 157 c 0
 656 138 694 125 753 116 c 1
 764 -11 l 1
 538 -4 397 0 342 0 c 128
 287 0 202 -4 87 -11 c 1
 93 116 l 1
 189 131 205 128 205 224 c 2
 205 824 l 1
 33 824 l 1
 33 947 l 1
 173 978 315 994 458 994 c 0
EndSplineSet
EndChar

StartChar: s
Encoding: 115 115 105
Width: 1071
GlyphClass: 2
Flags: HW
LayerCount: 2
Fore
SplineSet
498 146 m 128
 554 146 605 178 605 232 c 128
 605 288 568 312 527 332 c 128
 469 361 406 379 340 407 c 128
 216 459 77 546 77 709 c 0
 77 805 118 878 198 929 c 128
 278 980 405 1005 578 1005 c 128
 751 1005 887 969 984 897 c 1
 929 662 l 1
 698 698 l 1
 685 832 l 1
 654 841 622 845 587 845 c 0
 513 845 476 817 476 761 c 0
 476 698 530 681 584 664 c 0
 735 616 848 562 922 502 c 128
 996 442 1034 378 1034 310 c 128
 1034 173 980 99 894 48 c 0
 815 1 705 -22 565 -22 c 128
 425 -22 290 3 159 52 c 0
 120 67 93 80 76 93 c 1
 125 351 l 1
 402 291 l 1
 414 166 l 1
 439 153 467 146 498 146 c 128
EndSplineSet
EndChar

StartChar: t
Encoding: 116 116 106
Width: 1045
GlyphClass: 2
Flags: HW
LayerCount: 2
Fore
SplineSet
879 929 m 1
 878 853 817 836 730 839 c 1
 587 839 l 1
 587 256 l 2
 587 191 608 158 651 158 c 0
 706 158 744 201 765 286 c 2
 777 333 l 1
 1012 333 l 1
 1012 94 l 1
 901 17 760 -22 589 -22 c 0
 307 -22 166 89 166 311 c 2
 166 839 l 1
 -16 839 l 1
 -16 911 l 2
 -16 954 28 977 116 980 c 0
 139 981 160 982 180 983 c 1
 203 1137 l 2
 207 1163 213 1184 220 1200 c 2
 257 1286 l 1
 587 1286 l 1
 587 983 l 1
 879 983 l 1
 879 929 l 1
EndSplineSet
EndChar

StartChar: u
Encoding: 117 117 107
Width: 1429
GlyphClass: 2
Flags: HW
LayerCount: 2
Fore
SplineSet
490 -22 m 0
 293 -22 168 99 168 296 c 2
 168 824 l 1
 26 824 l 1
 13 950 l 1
 146 979 266 994 373 994 c 0
 516 994 587 962 587 899 c 2
 587 278 l 1
 590 219 597 183 609 170 c 128
 621 157 634 150 648 150 c 128
 717 150 783 192 817 226 c 1
 819 246 820 271 820 300 c 2
 820 530 l 1
 821 824 l 1
 688 824 l 1
 677 950 l 1
 806 979 924 994 1032 994 c 0
 1128 994 1192 977 1224 942 c 0
 1235 930 1240 916 1241 899 c 1
 1241 272 l 2
 1241 211 1244 170 1249 147 c 1
 1401 147 l 1
 1401 35 l 1
 1266 4 1142 -11 1028 -11 c 1
 957 -12 911 -7 889 4 c 0
 849 23 828 58 825 109 c 1
 712 22 600 -22 490 -22 c 0
EndSplineSet
EndChar

StartChar: v
Encoding: 118 118 108
Width: 1257
GlyphClass: 2
Flags: HW
LayerCount: 2
Fore
SplineSet
704 972 m 1
 817 987 907 994 974 994 c 128
 1041 994 1128 987 1237 972 c 1
 1237 824 l 1
 1105 824 l 1
 1022 557 922 282 806 0 c 1
 749 -7 697 -10 650 -10 c 0
 579 -10 508 -7 435 0 c 1
 89 824 l 1
 -17 824 l 1
 -38 972 l 1
 70 987 165 994 246 994 c 0
 350 994 458 987 571 972 c 1
 581 937 589 888 595 824 c 1
 519 824 l 1
 591 613 639 475 662 410 c 1
 704 541 745 679 786 824 c 1
 684 824 l 1
 704 972 l 1
EndSplineSet
EndChar

StartChar: w
Encoding: 119 119 109
Width: 1835
GlyphClass: 2
Flags: HW
LayerCount: 2
Fore
SplineSet
1297 824 m 1
 1305 855 1313 955 1317 972 c 1
 1421 987 1505 994 1570 994 c 128
 1635 994 1721 987 1830 972 c 1
 1830 824 l 1
 1700 824 l 1
 1625 536 1545 261 1459 0 c 1
 1402 -7 1351 -10 1306 -10 c 0
 1239 -10 1170 -7 1098 0 c 1
 933 509 l 1
 872 297 820 127 777 0 c 1
 720 -7 669 -10 624 -10 c 0
 557 -10 488 -7 416 0 c 1
 99 824 l 1
 -27 824 l 1
 -27 972 l 1
 81 987 175 994 256 994 c 0
 359 994 464 987 572 972 c 1
 582 937 590 888 596 824 c 1
 520 824 l 1
 524 814 562 676 633 410 c 1
 789 910 l 2
 808 968 866 983 943 983 c 128
 1066 983 1121 978 1154 882 c 1
 1305 410 l 1
 1398 824 l 1
 1297 824 l 1
EndSplineSet
EndChar

StartChar: x
Encoding: 120 120 110
Width: 1386
GlyphClass: 2
Flags: HW
LayerCount: 2
Fore
SplineSet
29 972 m 1
 136 987 231 994 314 994 c 0
 422 994 537 987 658 972 c 1
 668 937 676 888 682 824 c 1
 616 824 l 1
 749 630 l 1
 892 824 l 1
 801 824 l 1
 821 972 l 1
 929 987 1016 994 1082 994 c 128
 1148 994 1235 987 1344 972 c 1
 1344 824 l 1
 1202 824 l 1
 961 517 l 1
 1251 147 l 1
 1374 147 l 1
 1374 -11 l 1
 1168 3 948 3 715 -11 c 1
 705 35 695 100 691 147 c 1
 770 147 l 1
 614 363 l 1
 458 147 l 1
 562 147 l 1
 559 132 555 104 550 61 c 2
 542 -11 l 1
 432 -4 350 0 295 0 c 128
 240 0 148 -4 19 -11 c 1
 19 147 l 1
 146 147 l 1
 411 472 l 1
 167 824 l 1
 29 824 l 1
 29 972 l 1
EndSplineSet
EndChar

StartChar: y
Encoding: 121 121 111
Width: 1271
GlyphClass: 2
Flags: HW
LayerCount: 2
Fore
SplineSet
-19 972 m 1
 88 987 183 994 264 994 c 0
 368 994 477 987 590 972 c 1
 600 937 608 888 614 824 c 1
 538 824 l 1
 682 393 l 1
 733 562 773 706 804 824 c 1
 702 824 l 1
 723 972 l 1
 836 987 926 994 993 994 c 128
 1060 994 1147 987 1256 972 c 1
 1256 824 l 1
 1125 824 l 1
 836 11 l 1
 740 -254 630 -377 289 -377 c 0
 194 -377 112 -365 45 -340 c 1
 91 -169 l 1
 176 -201 252 -217 319 -217 c 0
 389 -218 435 -171 456 -76 c 0
 461 -51 466 -25 470 1 c 1
 109 824 l 1
 -19 824 l 1
 -19 972 l 1
EndSplineSet
EndChar

StartChar: z
Encoding: 122 122 112
Width: 1063
GlyphClass: 2
Flags: HW
LayerCount: 2
Fore
SplineSet
904 984 m 2
 990 984 1015 959 1015 889 c 2
 1015 753 l 1
 490 164 l 1
 762 164 l 2
 824 164 853 285 877 360 c 1
 1019 368 l 1
 1019 0 l 1
 246 0 l 1
 179 1 138 4 121 9 c 0
 76 22 54 52 54 99 c 2
 54 202 l 1
 619 824 l 1
 324 824 l 2
 297 824 279 819 270 808 c 0
 253 787 244 733 243 646 c 1
 70 636 l 1
 70 984 l 1
 904 984 l 2
EndSplineSet
EndChar

StartChar: braceleft
Encoding: 123 123 113
Width: 772
GlyphClass: 2
Flags: HW
LayerCount: 2
Fore
SplineSet
507 1475 m 128
 607 1475 713 1478 723 1398 c 1
 723 1361 l 1
 651 1356 606 1348 587 1337 c 0
 553 1316 536 1278 536 1222 c 2
 536 853 l 2
 536 752 491 678 401 631 c 1
 491 583 536 510 536 412 c 2
 536 42 l 2
 536 -35 538 -73 541 -73 c 0
 571 -82 632 -91 723 -100 c 1
 723 -133 l 2
 723 -185 655 -211 520 -211 c 0
 299 -212 166 -159 166 43 c 2
 166 405 l 2
 166 458 160 494 149 514 c 0
 129 549 97 572 53 582 c 1
 53 688 l 1
 122 695 159 742 164 831 c 0
 165 854 166 876 166 896 c 2
 166 1231 l 2
 166 1366 237 1444 379 1465 c 0
 424 1472 466 1475 507 1475 c 128
EndSplineSet
EndChar

StartChar: bar
Encoding: 124 124 114
Width: 1107
GlyphClass: 2
Flags: HW
LayerCount: 2
Fore
SplineSet
580 -225 m 1
 436 -226 398 -178 399 -31 c 1
 399 1412 l 1
 525 1412 l 2
 630 1412 707 1383 707 1282 c 2
 707 -225 l 1
 580 -225 l 1
EndSplineSet
EndChar

StartChar: braceright
Encoding: 125 125 115
Width: 767
GlyphClass: 2
Flags: HW
LayerCount: 2
Fore
SplineSet
718 582 m 1
 630 561 608 506 605 405 c 1
 605 43 l 2
 605 -96 535 -177 396 -200 c 0
 306 -214 218 -219 136 -200 c 0
 77 -187 48 -165 48 -133 c 2
 48 -100 l 1
 139 -91 200 -82 230 -73 c 0
 233 -73 235 -35 235 42 c 2
 235 412 l 2
 235 510 280 583 370 631 c 1
 280 678 235 752 235 853 c 2
 235 1222 l 2
 235 1344 179 1353 48 1361 c 1
 48 1398 l 1
 57 1473 158 1475 264 1475 c 128
 352 1475 448 1461 506 1428 c 0
 571 1391 604 1325 605 1231 c 1
 605 896 l 1
 606 776 624 697 718 688 c 1
 718 582 l 1
EndSplineSet
EndChar

StartChar: asciitilde
Encoding: 126 126 116
Width: 1159
GlyphClass: 2
Flags: HW
LayerCount: 2
Fore
SplineSet
816 538 m 128
 898 538 972 590 1004 645 c 1
 1037 602 1059 568 1068 543 c 1
 1042 457 955 394 832 394 c 128
 667 394 554 479 430 516 c 0
 399 525 373 530 352 530 c 0
 283 530 221 486 167 398 c 1
 127 438 102 470 91 495 c 1
 103 542 136 583 188 618 c 128
 240 653 288 671 332 671 c 0
 409 671 474 659 528 635 c 128
 612 597 649 579 718 554 c 0
 747 543 780 538 816 538 c 128
EndSplineSet
EndChar

StartChar: exclamdown
Encoding: 161 161 118
Width: 791
GlyphClass: 2
Flags: HW
LayerCount: 2
Fore
SplineSet
210 1221 m 0
 210 1339 288 1412 410 1412 c 128
 530 1412 610 1343 610 1223 c 0
 610 1110 522 1034 410 1033 c 128
 297 1032 210 1108 210 1221 c 0
412 -22 m 128
 303 -22 166 -17 166 93 c 128
 166 122 183 237 217 439 c 0
 238 562 256 696 272 843 c 1
 281 939 332 942 434 942 c 128
 465 942 493 935 518 920 c 1
 530 820 557 602 600 266 c 0
 613 167 619 114 619 109 c 2
 619 94 l 2
 619 -14 523 -22 412 -22 c 128
EndSplineSet
EndChar

StartChar: cent
Encoding: 162 162 119
Width: 1192
GlyphClass: 2
Flags: HW
LayerCount: 2
Fore
SplineSet
622 815 m 1
 554 768 520 663 520 502 c 128
 520 341 554 234 622 179 c 1
 622 815 l 1
644 1278 m 2
 734 1278 758 1264 759 1183 c 1
 759 1003 l 1
 915 992 1037 948 1124 872 c 1
 1107 674 l 1
 836 674 l 1
 807 731 781 772 759 797 c 1
 759 148 l 1
 862 150 976 189 1099 265 c 1
 1116 105 l 1
 1019 34 900 -8 759 -19 c 1
 759 -290 l 1
 736 -290 l 2
 641 -290 622 -279 622 -190 c 2
 622 -19 l 1
 319 0 94 176 94 486 c 0
 94 797 323 974 622 1001 c 1
 622 1278 l 1
 644 1278 l 2
EndSplineSet
EndChar

StartChar: sterling
Encoding: 163 163 120
Width: 1255
GlyphClass: 2
Flags: HW
LayerCount: 2
Fore
SplineSet
40 705 m 2
 40 771 85 785 155 785 c 2
 212 785 l 1
 195 902 187 991 187 1054 c 128
 187 1189 255 1280 343 1332 c 0
 432 1385 556 1412 713 1412 c 0
 919 1412 1081 1370 1198 1287 c 1
 1198 973 l 1
 952 948 l 1
 917 1049 882 1123 846 1170 c 128
 810 1217 769 1241 724 1241 c 0
 645 1241 605 1171 605 1031 c 0
 605 993 611 911 623 785 c 1
 933 785 l 1
 933 712 l 2
 933 659 902 632 841 632 c 2
 641 632 l 1
 644 562 646 515 646 492 c 128
 646 437 635 377 620 332 c 0
 604 282 579 227 545 167 c 1
 681 167 l 2
 782 167 855 189 900 234 c 0
 937 270 970 339 1000 441 c 1
 1207 419 l 1
 1207 316 1197 184 1178 21 c 1
 1027 7 856 0 667 0 c 2
 78 0 l 1
 53 43 41 91 41 144 c 1
 108 163 154 185 177 208 c 0
 221 251 243 305 243 370 c 128
 243 435 239 522 232 632 c 1
 40 632 l 1
 40 705 l 2
EndSplineSet
EndChar

StartChar: currency
Encoding: 164 164 121
Width: 1288
GlyphClass: 2
Flags: HW
LayerCount: 2
Fore
SplineSet
921 731 m 0
 921 912 782 1057 601 1056 c 0
 420 1054 282 912 282 730 c 0
 282 540 424 408 601 408 c 0
 781 408 921 551 921 731 c 0
107 1131 m 1
 133 1155 167 1196 200 1210 c 1
 221 1198 237 1186 250 1173 c 2
 330 1093 l 1
 411 1154 501 1184 598 1184 c 128
 695 1184 786 1153 869 1092 c 1
 1001 1224 l 1
 1026 1199 1044 1179 1055 1166 c 128
 1066 1153 1071 1140 1071 1128 c 128
 1071 1116 1071 1109 1070 1108 c 2
 963 1002 l 1
 1023 924 1053 834 1053 730 c 128
 1053 626 1023 537 962 462 c 1
 1092 330 l 1
 1048 286 1017 260 998 252 c 1
 979 259 956 278 928 308 c 128
 900 338 881 359 871 369 c 1
 788 309 697 279 598 279 c 128
 499 279 410 309 331 369 c 1
 200 240 l 1
 155 283 129 312 120 328 c 1
 129 347 141 364 158 381 c 2
 240 462 l 1
 180 538 150 628 150 731 c 128
 150 834 180 924 240 1000 c 1
 107 1131 l 1
EndSplineSet
EndChar

StartChar: yen
Encoding: 165 165 122
Width: 1567
GlyphClass: 2
Flags: HW
LayerCount: 2
Fore
SplineSet
1361 348 m 2
 1361 286 1323 269 1265 266 c 1
 1020 266 l 1
 1020 239 l 2
 1020 210 1022 179 1025 147 c 1
 1213 147 l 1
 1213 -11 l 1
 1049 -4 916 0 814 0 c 128
 712 0 573 -4 396 -11 c 1
 396 147 l 1
 582 147 l 1
 585 170 587 194 587 217 c 2
 587 266 l 1
 236 266 l 1
 236 341 l 1
 283 396 338 413 440 413 c 2
 585 413 l 1
 585 514 l 1
 236 514 l 1
 236 590 l 1
 279 638 346 662 437 662 c 2
 496 662 l 1
 386 843 291 987 206 1140 c 2
 164 1215 l 1
 17 1215 l 1
 -7 1387 l 1
 129 1395 269 1399 412 1399 c 128
 555 1399 667 1395 749 1387 c 1
 764 1215 l 1
 636 1215 l 1
 654 1164 665 1135 668 1128 c 2
 876 752 l 1
 1052 1123 l 2
 1059 1139 1067 1170 1074 1215 c 1
 918 1215 l 1
 953 1387 l 1
 1036 1395 1131 1399 1240 1399 c 2
 1314 1399 l 2
 1393 1399 1478 1395 1569 1387 c 1
 1545 1215 l 1
 1398 1215 l 1
 1389 1204 1374 1174 1352 1123 c 1
 1318 1062 1272 978 1213 869 c 2
 1101 662 l 1
 1361 662 l 1
 1361 596 l 1
 1362 534 1320 520 1258 514 c 1
 1020 514 l 1
 1020 413 l 1
 1361 413 l 1
 1361 348 l 2
EndSplineSet
EndChar

StartChar: brokenbar
Encoding: 166 166 123
Width: 1150
GlyphClass: 2
Flags: HW
LayerCount: 2
Fore
SplineSet
566 378 m 2
 663 378 727 366 750 298 c 1
 750 -405 l 1
 542 -405 l 1
 462 -404 407 -394 404 -333 c 128
 403 -315 402 -301 402 -292 c 2
 402 378 l 1
 566 378 l 2
566 1448 m 2
 662 1448 727 1435 750 1367 c 1
 750 664 l 1
 584 664 l 2
 500 664 447 673 424 692 c 0
 402 710 402 744 402 778 c 2
 402 1448 l 1
 566 1448 l 2
EndSplineSet
EndChar

StartChar: section
Encoding: 167 167 124
Width: 975
GlyphClass: 2
Flags: HW
LayerCount: 2
Fore
SplineSet
398 876 m 1
 350 848 298 810 298 746 c 128
 298 698 307 677 330 654 c 0
 348 636 382 614 432 588 c 2
 508 548 l 2
 539 531 574 514 613 499 c 1
 685 538 721 586 721 643 c 0
 721 696 659 752 535 809 c 1
 464 840 418 863 398 876 c 1
894 186 m 0
 894 -35 724 -133 490 -133 c 0
 385 -133 283 -110 184 -65 c 0
 152 -50 128 -34 111 -15 c 1
 111 96 109 177 105 228 c 1
 234 228 l 1
 278 91 341 14 509 14 c 0
 596 14 654 40 682 92 c 0
 691 109 696 127 696 146 c 128
 696 190 682 208 654 230 c 0
 625 254 570 285 490 323 c 2
 351 389 l 2
 278 424 227 456 198 485 c 0
 137 548 107 622 107 709 c 0
 107 842 163 909 253 957 c 1
 179 1016 140 1080 140 1194 c 128
 140 1307 190 1382 258 1430 c 0
 327 1478 423 1502 545 1501 c 1
 647 1502 734 1482 806 1442 c 0
 823 1433 836 1425 844 1418 c 1
 823 1212 l 1
 709 1212 l 1
 669 1316 629 1356 501 1356 c 0
 390 1356 334 1313 334 1227 c 0
 334 1119 461 1073 566 1026 c 128
 657 985 770 931 835 872 c 0
 886 825 912 762 912 682 c 0
 912 561 866 473 773 420 c 1
 854 361 894 283 894 186 c 0
EndSplineSet
EndChar

StartChar: dieresis
Encoding: 168 168 125
Width: 1240
GlyphClass: 2
Flags: HW
LayerCount: 2
Fore
SplineSet
1032 1255 m 128
 1032 1159 964 1100 867 1100 c 128
 768 1100 702 1159 702 1257 c 0
 702 1344 766 1412 868 1412 c 128
 966 1412 1032 1349 1032 1255 c 128
207 1257 m 1
 206 1345 269 1412 372 1412 c 128
 470 1412 535 1349 536 1256 c 128
 537 1160 469 1100 372 1100 c 128
 273 1100 207 1159 207 1257 c 1
EndSplineSet
EndChar

StartChar: copyright
Encoding: 169 169 126
Width: 1625
GlyphClass: 2
Flags: HW
LayerCount: 2
Fore
SplineSet
428 701 m 0
 428 936 614 1064 860 1064 c 128
 982 1064 1078 1033 1149 971 c 1
 1137 832 l 1
 947 832 l 1
 911 907 877 945 844 945 c 0
 765 945 726 871 726 722 c 0
 726 550 772 464 863 464 c 0
 951 464 1041 491 1132 546 c 1
 1143 434 l 1
 1064 375 965 346 847 346 c 0
 605 346 428 469 428 701 c 0
1534 698 m 128
 1534 501 1474 335 1354 200 c 0
 1222 52 1045 -22 822 -22 c 128
 599 -22 421 46 289 180 c 128
 157 314 91 483 91 686 c 128
 91 889 156 1062 286 1202 c 128
 416 1342 590 1412 812 1412 c 128
 1034 1412 1210 1342 1340 1203 c 128
 1470 1064 1534 895 1534 698 c 128
290 692 m 0
 290 377 501 146 813 146 c 0
 983 146 1116 202 1213 314 c 0
 1301 416 1345 542 1345 692 c 0
 1345 855 1295 987 1194 1090 c 0
 1094 1193 966 1244 810 1244 c 0
 642 1244 514 1175 430 1084 c 1
 337 981 290 851 290 692 c 0
EndSplineSet
EndChar

StartChar: ordfeminine
Encoding: 170 170 127
Width: 950
GlyphClass: 2
Flags: HW
LayerCount: 2
Fore
SplineSet
400 1410 m 128
 647 1410 801 1353 801 1113 c 1
 800 1003 l 1
 800 873 l 2
 800 825 801 794 804 781 c 1
 819 780 835 779 853 779 c 2
 915 779 l 1
 915 696 l 1
 816 675 714 665 609 665 c 1
 574 690 544 717 520 747 c 1
 462 686 392 656 311 656 c 0
 188 656 107 697 68 778 c 0
 55 805 48 837 48 873 c 0
 48 1024 192 1100 479 1100 c 2
 493 1100 l 1
 493 1125 l 1
 492 1238 492 1296 455 1300 c 1
 401 1300 331 1245 244 1135 c 1
 67 1248 l 1
 67 1351 285 1410 400 1410 c 128
471 1013 m 2
 394 1013 350 957 350 879 c 0
 350 808 371 773 412 773 c 0
 435 773 462 786 493 812 c 1
 493 1013 l 1
 471 1013 l 2
EndSplineSet
EndChar

StartChar: guillemotleft
Encoding: 171 171 128
Width: 1047
GlyphClass: 2
Flags: HW
LayerCount: 2
Fore
SplineSet
358 539 m 1
 457 329 520 192 549 129 c 1
 521 105 485 84 440 66 c 1
 107 469 l 1
 107 583 l 1
 446 1017 l 1
 508 994 548 977 565 964 c 1
 543 902 474 760 358 539 c 1
732 539 m 1
 831 329 894 192 923 129 c 1
 895 105 859 84 814 66 c 1
 481 469 l 1
 481 583 l 1
 820 1017 l 1
 882 994 922 977 939 964 c 1
 917 902 848 760 732 539 c 1
EndSplineSet
EndChar

StartChar: logicalnot
Encoding: 172 172 129
Width: 1289
GlyphClass: 2
Flags: HW
LayerCount: 2
Fore
SplineSet
1057 231 m 2
 986 231 925 242 925 307 c 2
 925 631 l 1
 107 631 l 1
 107 710 l 1
 108 753 114 779 126 788 c 0
 143 801 175 808 222 808 c 2
 1182 808 l 1
 1182 231 l 1
 1057 231 l 2
EndSplineSet
EndChar

StartChar: uni00AD
Encoding: 173 173 130
Width: 596
GlyphClass: 2
Flags: HW
LayerCount: 2
Fore
SplineSet
774 515 m 2
 774 461 703 441 636 429 c 1
 41 429 l 1
 41 544 l 2
 41 595 84 620 171 620 c 1
 176 621 182 621 189 621 c 2
 774 621 l 1
 774 515 l 2
EndSplineSet
EndChar

StartChar: registered
Encoding: 174 174 131
Width: 1625
GlyphClass: 2
Flags: HW
LayerCount: 2
Fore
SplineSet
898 844 m 0
 898 927 869 956 786 956 c 2
 771 956 l 1
 771 726 l 1
 796 726 l 2
 864 726 898 765 898 844 c 0
1534 698 m 128
 1534 501 1474 335 1354 200 c 0
 1222 52 1045 -22 822 -22 c 128
 599 -22 421 46 289 180 c 128
 157 314 91 483 91 686 c 128
 91 889 156 1062 286 1202 c 128
 416 1342 590 1412 812 1412 c 128
 1034 1412 1210 1342 1340 1203 c 128
 1470 1064 1534 895 1534 698 c 128
290 692 m 0
 290 377 501 146 813 146 c 0
 983 146 1116 202 1213 314 c 0
 1301 416 1345 542 1345 692 c 0
 1345 855 1295 987 1194 1090 c 0
 1094 1193 966 1244 810 1244 c 0
 642 1244 514 1175 430 1084 c 1
 337 981 290 851 290 692 c 0
936 674 m 1
 1037 638 1094 579 1123 471 c 1
 1197 478 l 1
 1204 402 l 1
 1169 370 1120 354 1056 354 c 128
 992 354 953 379 936 429 c 0
 903 522 865 597 823 656 c 1
 771 656 l 1
 771 494 l 2
 771 473 772 459 774 450 c 1
 841 450 l 1
 841 364 l 1
 750 368 l 2
 737 369 724 369 711 369 c 130
 673 369 l 1
 479 364 l 1
 479 450 l 1
 560 450 l 1
 562 458 563 473 563 494 c 2
 563 914 l 2
 563 934 562 948 560 956 c 1
 461 956 l 1
 461 1037 l 1
 565 1042 656 1045 734 1045 c 128
 935 1045 1109 1031 1109 848 c 1
 1110 756 1034 693 936 674 c 1
EndSplineSet
EndChar

StartChar: macron
Encoding: 175 175 132
Width: 1102
GlyphClass: 2
Flags: HW
LayerCount: 2
Fore
SplineSet
172 1345 m 1
 930 1345 l 1
 930 1176 l 1
 172 1176 l 1
 172 1345 l 1
EndSplineSet
EndChar

StartChar: degree
Encoding: 176 176 133
Width: 567
GlyphClass: 2
Flags: HW
LayerCount: 2
Fore
SplineSet
79 1226 m 0
 79 1339 167 1411 283 1411 c 0
 376 1411 439 1375 472 1303 c 0
 509 1224 473 1127 430 1088 c 128
 396 1057 346 1037 283 1037 c 128
 161 1037 79 1111 79 1226 c 0
283 1339 m 128
 212 1339 164 1295 164 1224 c 128
 164 1153 212 1110 283 1110 c 128
 354 1110 402 1153 402 1224 c 128
 402 1295 354 1339 283 1339 c 128
EndSplineSet
EndChar

StartChar: plusminus
Encoding: 177 177 134
Width: 1139
GlyphClass: 2
Flags: HW
LayerCount: 2
Fore
SplineSet
545 371 m 1
 437 377 415 386 415 479 c 2
 415 669 l 1
 148 669 l 1
 148 759 l 2
 148 848 216 860 313 857 c 1
 415 857 l 1
 415 1153 l 1
 477 1153 l 2
 570 1153 639 1142 660 1075 c 1
 660 857 l 1
 929 857 l 1
 929 767 l 1
 920 684 884 669 795 669 c 2
 660 669 l 1
 660 371 l 1
 545 371 l 1
107 121 m 2
 107 222 168 219 292 219 c 2
 1032 219 l 1
 1032 130 l 2
 1032 63 974 32 905 32 c 2
 107 32 l 1
 107 121 l 2
EndSplineSet
EndChar

StartChar: twosuperior
Encoding: 178 178 135
Width: 846
GlyphClass: 2
Flags: HW
LayerCount: 2
Fore
SplineSet
69 1230 m 1
 69 1359 270 1412 417 1412 c 0
 641 1412 753 1326 753 1154 c 1
 754 1037 665 916 488 789 c 0
 437 753 386 718 333 685 c 1
 521 685 l 2
 538 685 563 688 595 694 c 1
 624 743 648 786 665 823 c 1
 778 812 l 1
 778 530 l 1
 722 525 645 522 546 522 c 2
 148 522 l 2
 95 522 64 537 64 582 c 0
 64 605 65 624 66 639 c 1
 313 860 450 998 475 1051 c 0
 491 1084 500 1127 501 1178 c 1
 501 1264 470 1307 408 1307 c 0
 337 1307 284 1243 247 1114 c 1
 69 1230 l 1
EndSplineSet
EndChar

StartChar: threesuperior
Encoding: 179 179 136
Width: 823
GlyphClass: 2
Flags: HW
LayerCount: 2
Fore
SplineSet
407 1293 m 128
 300 1293 245 1227 222 1140 c 1
 64 1245 l 1
 122 1344 219 1412 364 1412 c 128
 479 1412 554 1400 623 1361 c 0
 689 1324 722 1275 722 1213 c 0
 722 1099 656 1029 524 1002 c 1
 669 980 754 905 754 747 c 128
 754 655 697 591 636 556 c 0
 572 520 490 502 390 502 c 128
 290 502 189 526 88 573 c 1
 88 794 l 1
 220 782 l 1
 240 695 271 616 368 616 c 128
 454 616 497 676 497 763 c 0
 497 871 439 925 323 925 c 2
 228 925 l 1
 228 1030 l 1
 306 1030 l 2
 430 1030 514 1077 514 1194 c 128
 514 1247 459 1293 407 1293 c 128
EndSplineSet
EndChar

StartChar: acute
Encoding: 180 180 137
Width: 1075
GlyphClass: 2
Flags: HW
LayerCount: 2
Fore
SplineSet
264 1113 m 1
 414 1482 l 1
 809 1482 l 1
 499 1113 l 1
 264 1113 l 1
EndSplineSet
EndChar

StartChar: mu
Encoding: 181 181 138
Width: 1564
GlyphClass: 2
Flags: HW
LayerCount: 2
Fore
SplineSet
564 -454 m 128
 398 -454 288 -415 288 -261 c 2
 288 824 l 1
 146 824 l 1
 133 950 l 1
 266 979 386 994 493 994 c 0
 636 994 707 962 707 899 c 2
 707 278 l 1
 710 219 717 183 729 170 c 128
 741 157 754 150 768 150 c 128
 802 150 833 163 860 174 c 1
 891 188 917 205 937 226 c 1
 940 261 941 310 941 374 c 2
 941 824 l 1
 808 824 l 1
 797 950 l 1
 926 979 1044 994 1152 994 c 0
 1248 994 1312 977 1344 942 c 0
 1355 930 1360 916 1361 899 c 1
 1361 272 l 2
 1361 211 1364 170 1369 147 c 1
 1521 147 l 1
 1521 35 l 1
 1386 4 1262 -11 1148 -11 c 1
 1077 -12 1031 -7 1009 4 c 0
 969 23 948 58 945 109 c 1
 847 32 747 -11 646 -20 c 1
 646 -72 l 2
 646 -207 715 -262 822 -294 c 1
 824 -321 827 -340 827 -358 c 2
 827 -367 l 1
 745 -425 657 -454 564 -454 c 128
EndSplineSet
EndChar

StartChar: paragraph
Encoding: 182 182 139
Width: 1174
GlyphClass: 2
Flags: HW
LayerCount: 2
Fore
SplineSet
66 1004 m 0
 66 1312 303 1387 639 1387 c 2
 781 1387 l 2
 942 1387 1051 1382 1108 1372 c 1
 1108 1272 l 1
 1016 1272 l 2
 968 1272 934 1268 913 1261 c 1
 903 1232 898 1192 898 1141 c 2
 898 64 l 2
 898 13 903 -28 914 -57 c 1
 933 -63 967 -66 1017 -66 c 2
 1106 -66 l 1
 1106 -202 l 1
 983 -189 867 -183 758 -183 c 1
 758 1311 l 1
 604 1311 l 1
 604 -183 l 1
 495 -183 379 -189 256 -202 c 1
 256 -66 l 1
 345 -66 l 2
 394 -66 429 -63 448 -57 c 1
 459 -28 464 13 464 64 c 2
 464 595 l 1
 199 595 66 731 66 1004 c 0
EndSplineSet
EndChar

StartChar: periodcentered
Encoding: 183 183 140
Width: 631
GlyphClass: 2
Flags: HW
LayerCount: 2
Fore
SplineSet
315 767 m 1
 431 767 516 689 515 576 c 1
 515 457 434 388 315 388 c 128
 193 388 116 462 115 579 c 0
 115 692 201 768 315 767 c 1
EndSplineSet
EndChar

StartChar: cedilla
Encoding: 184 184 141
Width: 611
GlyphClass: 2
Flags: HW
LayerCount: 2
Fore
SplineSet
224 -390 m 128
 295 -390 355 -360 355 -291 c 0
 355 -226 322 -189 255 -178 c 0
 252 -178 239 -181 218 -186 c 1
 215 -184 198 -176 167 -163 c 1
 252 11 l 1
 353 11 l 1
 297 -96 l 1
 410 -103 480 -135 507 -194 c 0
 517 -215 522 -241 522 -272 c 0
 522 -423 420 -498 268 -498 c 128
 190 -498 130 -484 87 -457 c 1
 87 -366 l 1
 140 -382 186 -390 224 -390 c 128
EndSplineSet
EndChar

StartChar: onesuperior
Encoding: 185 185 142
Width: 675
GlyphClass: 2
Flags: HW
LayerCount: 2
Fore
SplineSet
585 517 m 1
 507 522 424 524 336 524 c 128
 248 524 161 522 77 517 c 1
 77 629 l 1
 193 629 l 1
 195 637 196 656 196 686 c 2
 196 1288 l 2
 196 1292 196 1296 195 1299 c 1
 88 1299 l 1
 88 1371 l 1
 177 1390 248 1399 300 1399 c 128
 352 1399 387 1398 404 1396 c 0
 446 1393 466 1380 466 1333 c 2
 466 652 l 2
 466 643 467 636 468 629 c 1
 585 629 l 1
 585 517 l 1
EndSplineSet
EndChar

StartChar: ordmasculine
Encoding: 186 186 143
Width: 989
GlyphClass: 2
Flags: HW
LayerCount: 2
Fore
SplineSet
606 1130 m 128
 598 1207 576 1287 494 1287 c 128
 394 1287 379 1172 378 1068 c 128
 377 947 374 855 434 800 c 128
 449 786 469 780 494 780 c 128
 595 780 609 894 610 998 c 128
 610 1055 609 1099 606 1130 c 128
495 1412 m 0
 745 1412 931 1271 931 1026 c 0
 931 896 871 804 796 746 c 0
 717 686 617 656 495 656 c 0
 247 656 58 794 58 1031 c 0
 58 1273 245 1412 495 1412 c 0
EndSplineSet
EndChar

StartChar: guillemotright
Encoding: 187 187 144
Width: 1046
GlyphClass: 2
Flags: HW
LayerCount: 2
Fore
SplineSet
688 539 m 1
 567 768 498 909 481 964 c 1
 498 977 538 994 600 1017 c 1
 938 583 l 1
 938 469 l 1
 606 66 l 1
 563 82 527 103 497 129 c 1
 526 192 589 329 688 539 c 1
314 539 m 1
 193 768 124 909 107 964 c 1
 124 977 164 994 226 1017 c 1
 564 583 l 1
 564 469 l 1
 232 66 l 1
 189 82 153 103 123 129 c 1
 152 192 215 329 314 539 c 1
EndSplineSet
EndChar

StartChar: onequarter
Encoding: 188 188 145
Width: 2056
GlyphClass: 2
Flags: HW
LayerCount: 2
Fore
SplineSet
517 517 m 1
 439 522 356 524 268 524 c 128
 180 524 93 522 9 517 c 1
 9 629 l 1
 125 629 l 1
 127 637 128 656 128 686 c 2
 128 1288 l 2
 128 1292 128 1296 127 1299 c 1
 20 1299 l 1
 20 1371 l 1
 109 1390 180 1399 232 1399 c 128
 284 1399 319 1398 336 1396 c 0
 378 1393 398 1380 398 1333 c 2
 398 652 l 2
 398 643 399 636 400 629 c 1
 517 629 l 1
 517 517 l 1
2024 311 m 2
 2024 250 1980 244 1915 244 c 2
 1845 244 l 1
 1845 181 l 2
 1845 152 1846 130 1849 117 c 1
 1980 117 l 1
 1980 -8 l 1
 1812 0 1627 0 1426 -8 c 1
 1426 117 l 1
 1571 117 l 1
 1574 130 1575 152 1575 181 c 2
 1575 244 l 1
 1236 244 l 1
 1203 300 l 1
 1183 340 1173 379 1173 418 c 1
 1551 972 l 1
 1726 972 l 2
 1800 972 1845 963 1845 903 c 2
 1845 364 l 1
 2024 364 l 1
 2024 311 l 2
1575 364 m 1
 1575 689 l 1
 1372 364 l 1
 1575 364 l 1
1094 1331 m 2
 1119 1383 1139 1412 1202 1412 c 2
 1375 1412 l 1
 745 48 l 2
 724 4 700 -22 640 -22 c 2
 469 -22 l 1
 1094 1331 l 2
EndSplineSet
EndChar

StartChar: onehalf
Encoding: 189 189 146
Width: 2021
GlyphClass: 2
Flags: HW
LayerCount: 2
Fore
SplineSet
517 517 m 1
 439 522 356 524 268 524 c 128
 180 524 93 522 9 517 c 1
 9 629 l 1
 125 629 l 1
 127 637 128 656 128 686 c 2
 128 1288 l 2
 128 1292 128 1296 127 1299 c 1
 20 1299 l 1
 20 1371 l 1
 109 1390 180 1399 232 1399 c 128
 284 1399 319 1398 336 1396 c 0
 378 1393 398 1380 398 1333 c 2
 398 652 l 2
 398 643 399 636 400 629 c 1
 517 629 l 1
 517 517 l 1
1268 708 m 1
 1268 837 1469 890 1616 890 c 0
 1840 890 1952 804 1952 632 c 0
 1952 515 1863 394 1686 267 c 0
 1635 231 1584 196 1532 163 c 1
 1720 163 l 2
 1737 163 1762 166 1794 172 c 1
 1823 221 1847 264 1864 301 c 1
 1977 290 l 1
 1977 8 l 1
 1921 3 1844 0 1745 0 c 2
 1347 0 l 2
 1295 0 1263 14 1263 60 c 0
 1263 84 1264 103 1265 117 c 1
 1512 338 1649 476 1674 529 c 0
 1690 562 1699 605 1700 656 c 1
 1700 742 1669 785 1607 785 c 0
 1536 785 1483 721 1446 592 c 1
 1268 708 l 1
1094 1331 m 2
 1119 1383 1139 1412 1202 1412 c 2
 1375 1412 l 1
 745 48 l 2
 724 4 700 -22 640 -22 c 2
 469 -22 l 1
 1094 1331 l 2
EndSplineSet
EndChar

StartChar: threequarters
Encoding: 190 190 147
Width: 2174
GlyphClass: 2
Flags: HW
LayerCount: 2
Fore
SplineSet
2142 311 m 2
 2142 250 2098 244 2033 244 c 2
 1963 244 l 1
 1963 181 l 2
 1963 152 1964 130 1967 117 c 1
 2098 117 l 1
 2098 -8 l 1
 1930 0 1745 0 1544 -8 c 1
 1544 117 l 1
 1675 117 l 1
 1678 130 1679 152 1679 181 c 2
 1679 244 l 1
 1354 244 l 1
 1321 300 l 1
 1301 340 1291 379 1291 418 c 1
 1669 972 l 1
 1844 972 l 2
 1918 972 1963 963 1963 903 c 2
 1963 364 l 1
 2142 364 l 1
 2142 311 l 2
1679 364 m 1
 1679 619 l 1
 1511 364 l 1
 1679 364 l 1
368 616 m 128
 454 616 497 676 497 763 c 0
 497 871 439 925 323 925 c 2
 228 925 l 1
 234 1014 l 1
 306 1032 l 1
 395 1046 461 1087 496 1141 c 128
 508 1160 514 1182 514 1207 c 128
 514 1258 458 1293 407 1293 c 128
 300 1293 245 1227 222 1140 c 1
 64 1245 l 1
 122 1344 219 1412 364 1412 c 128
 479 1412 554 1400 623 1361 c 0
 689 1324 722 1275 722 1213 c 0
 722 1099 656 1029 524 1002 c 1
 669 980 754 905 754 747 c 128
 754 655 697 591 636 556 c 0
 572 520 490 502 390 502 c 128
 290 502 189 526 88 573 c 1
 88 794 l 1
 220 782 l 1
 240 695 271 616 368 616 c 128
1247 1331 m 2
 1272 1383 1292 1412 1355 1412 c 2
 1528 1412 l 1
 898 48 l 2
 877 4 853 -22 793 -22 c 2
 622 -22 l 1
 1247 1331 l 2
EndSplineSet
EndChar

StartChar: AE
Encoding: 198 198 155
Width: 2161
GlyphClass: 2
Flags: HW
LayerCount: 2
Fore
SplineSet
661 543 m 1
 924 543 l 1
 776 949 l 1
 661 543 l 1
577 184 m 128
 577 127 617 125 674 118 c 1
 649 -11 l 1
 463 6 152 4 0 -11 c 1
 37 122 l 1
 63 126 l 2
 127 135 158 151 179 201 c 2
 201 255 l 1
 342 604 478 971 644 1387 c 1
 1683 1387 l 1
 1855 1066 l 1
 1643 1038 l 1
 1616 1091 1585 1140 1548 1185 c 1
 1457 1197 1384 1203 1329 1203 c 2
 1112 1203 l 1
 1268 777 l 1
 1441 777 l 2
 1468 777 1469 795 1469 826 c 128
 1469 845 1466 874 1460 911 c 1
 1611 911 l 1
 1770 476 l 1
 1761 475 1751 475 1742 475 c 2
 1619 475 l 1
 1591 524 1568 560 1551 584 c 128
 1534 608 1516 619 1498 619 c 2
 1325 619 l 1
 1490 167 l 1
 1770 167 l 2
 1825 167 1864 171 1887 180 c 1
 1886 207 1879 252 1864 314 c 2
 1853 361 l 1
 1899 360 1944 359 1988 359 c 130
 2120 359 l 1
 2154 264 2192 149 2233 14 c 1
 2080 4 1947 -1 1835 -1 c 2
 1310 0 l 2
 1246 0 1183 -3 1110 -5 c 2
 949 -11 l 1
 949 113 l 1
 1017 122 l 2
 1034 124 1043 132 1043 146 c 0
 1043 150 1041 159 1037 173 c 2
 967 390 l 1
 631 390 l 1
 591 256 l 2
 582 225 577 201 577 184 c 128
EndSplineSet
EndChar

StartChar: Eth
Encoding: 208 208 165
Width: 1678
GlyphClass: 2
Flags: HW
LayerCount: 2
Fore
SplineSet
923 708 m 1
 922 653 871 622 803 622 c 2
 679 622 l 1
 679 171 l 1
 685 170 691 170 696 170 c 2
 713 170 l 2
 940 170 1075 271 1116 473 c 0
 1129 537 1136 608 1136 688 c 128
 1136 841 1122 975 1067 1069 c 0
 1011 1164 913 1211 774 1211 c 2
 764 1211 l 1
 722 1210 l 1
 679 1210 l 1
 679 787 l 1
 923 787 l 1
 923 708 l 1
47 701 m 2
 47 758 85 787 162 787 c 2
 250 787 l 1
 250 1093 l 2
 250 1138 247 1176 241 1206 c 1
 46 1206 l 1
 46 1366 l 1
 272 1380 526 1387 809 1387 c 0
 1197 1387 1440 1258 1537 999 c 0
 1570 910 1587 805 1587 683 c 128
 1587 436 1505 268 1365 160 c 1
 1228 53 1034 0 782 0 c 2
 54 0 l 1
 54 151 l 1
 244 151 l 1
 248 193 250 235 250 278 c 2
 250 622 l 1
 47 622 l 1
 47 701 l 2
EndSplineSet
EndChar

StartChar: multiply
Encoding: 215 215 172
Width: 1292
GlyphClass: 2
Flags: HW
LayerCount: 2
Fore
SplineSet
315 1143 m 1
 645 810 l 1
 975 1143 l 1
 1157 957 l 1
 827 627 l 1
 1157 295 l 1
 973 115 l 1
 645 444 l 1
 317 115 l 1
 133 295 l 1
 462 627 l 1
 133 957 l 1
 315 1143 l 1
EndSplineSet
EndChar

StartChar: Oslash
Encoding: 216 216 173
Width: 1643
GlyphClass: 2
Flags: HW
LayerCount: 2
Fore
SplineSet
1165 1348 m 1
 1408 1243 1552 1015 1552 688 c 0
 1552 242 1270 -22 822 -22 c 0
 749 -22 681 -15 618 -2 c 1
 596 -55 l 2
 586 -79 561 -91 521 -91 c 2
 447 -91 l 1
 498 34 l 1
 246 133 91 347 91 692 c 128
 91 1153 371 1412 822 1412 c 0
 903 1412 979 1404 1048 1387 c 1
 1068 1437 l 1
 1077 1467 1103 1482 1145 1482 c 2
 1220 1482 l 1
 1165 1348 l 1
609 307 m 1
 961 1175 l 1
 922 1207 876 1223 822 1223 c 0
 734 1223 665 1179 616 1090 c 128
 567 1001 543 870 543 698 c 128
 543 526 565 396 609 307 c 1
700 200 m 1
 735 178 775 167 822 167 c 0
 911 167 979 210 1028 296 c 128
 1077 382 1101 507 1101 673 c 128
 1101 839 1083 966 1046 1053 c 1
 700 200 l 1
EndSplineSet
EndChar

StartChar: Thorn
Encoding: 222 222 179
Width: 1286
GlyphClass: 2
Flags: HW
LayerCount: 2
Fore
SplineSet
913 717 m 0
 913 886 855 970 704 970 c 2
 668 970 l 1
 668 468 l 1
 671 467 676 467 682 467 c 2
 705 467 l 2
 858 467 913 562 913 717 c 0
745 1144 m 2
 1103 1144 1344 1042 1350 718 c 1
 1350 433 1134 291 701 291 c 0
 688 291 677 292 669 293 c 1
 669 194 l 2
 669 173 671 157 675 147 c 1
 863 147 l 1
 863 10 l 1
 742 -7 609 -16 466 -16 c 128
 323 -16 183 -6 46 15 c 1
 46 147 l 1
 232 147 l 1
 236 165 238 196 238 239 c 2
 238 1143 l 2
 238 1176 236 1207 233 1235 c 1
 46 1235 l 1
 46 1367 l 1
 203 1388 351 1399 490 1399 c 128
 629 1399 754 1390 863 1373 c 1
 863 1235 l 1
 676 1235 l 1
 672 1218 670 1187 670 1144 c 1
 745 1144 l 2
EndSplineSet
EndChar

StartChar: germandbls
Encoding: 223 223 180
Width: 1473
GlyphClass: 2
Flags: HW
LayerCount: 2
Fore
SplineSet
1000 135 m 128
 1063 135 1113 193 1113 252 c 128
 1113 307 1102 324 1074 352 c 0
 1035 390 877 486 832 522 c 128
 768 573 706 643 706 740 c 128
 706 909 755 963 900 993 c 1
 938 1025 957 1067 957 1119 c 0
 957 1220 903 1271 794 1271 c 0
 692 1271 634 1204 620 1069 c 0
 616 1030 614 990 614 949 c 2
 614 0 l 1
 556 0 l 2
 431 0 247 -4 2 -11 c 1
 2 167 l 1
 188 167 l 1
 192 185 194 216 194 259 c 2
 194 846 l 1
 43 846 l 1
 43 924 63 956 139 956 c 2
 194 956 l 1
 208 1255 435 1412 755 1412 c 0
 1024 1412 1195 1345 1269 1210 c 0
 1294 1165 1306 1112 1306 1052 c 0
 1306 1009 1301 977 1290 954 c 0
 1275 922 1250 885 1217 844 c 1
 1178 859 1140 867 1104 867 c 0
 1027 867 988 837 988 776 c 128
 988 715 1020 673 1083 650 c 0
 1141 629 1226 609 1286 582 c 0
 1389 534 1466 450 1466 313 c 0
 1466 203 1419 117 1324 56 c 0
 1244 5 1147 -21 1033 -22 c 0
 950 -22 838 -8 699 19 c 1
 739 305 l 1
 874 253 l 1
 885 189 927 135 1000 135 c 128
EndSplineSet
EndChar

StartChar: ae
Encoding: 230 230 187
Width: 1770
GlyphClass: 2
Flags: HW
LayerCount: 2
Fore
SplineSet
1362 590 m 1
 1362 608 l 2
 1362 717 1339 790 1294 827 c 0
 1279 839 1262 845 1243 845 c 0
 1169 845 1124 760 1108 590 c 1
 1362 590 l 1
650 464 m 2
 544 464 485 389 485 282 c 0
 485 186 523 138 599 138 c 0
 644 138 706 150 784 173 c 1
 722 249 688 345 681 460 c 1
 680 464 l 1
 650 464 l 2
462 -22 m 0
 248 -22 74 72 74 274 c 0
 74 480 269 583 660 583 c 2
 680 583 l 1
 680 617 l 2
 680 700 676 760 668 798 c 128
 660 836 647 855 628 855 c 0
 552 855 456 780 341 631 c 1
 100 785 l 1
 100 937 408 1005 589 1005 c 0
 744 1005 864 970 947 900 c 1
 1042 970 1154 1005 1283 1005 c 0
 1544 1005 1752 866 1753 615 c 0
 1753 465 1684 442 1522 442 c 2
 1109 442 l 1
 1137 286 1226 169 1404 169 c 128
 1488 169 1582 194 1685 245 c 1
 1703 95 l 1
 1594 17 1454 -22 1284 -22 c 128
 1114 -22 974 17 867 94 c 1
 716 17 581 -22 462 -22 c 0
EndSplineSet
EndChar

StartChar: eth
Encoding: 240 240 197
Width: 1235
GlyphClass: 2
Flags: HW
LayerCount: 2
Fore
SplineSet
634 829 m 0
 541 829 495 716 495 489 c 0
 495 359 504 274 521 233 c 128
 548 170 575 131 648 131 c 128
 713 131 739 184 758 239 c 0
 781 308 792 405 793 530 c 0
 793 631 789 705 781 753 c 1
 752 804 703 829 634 829 c 0
634 -26 m 0
 302 -26 61 164 61 487 c 0
 61 650 121 775 240 864 c 0
 346 943 477 982 634 982 c 0
 685 982 724 980 751 975 c 1
 726 1048 697 1104 666 1141 c 1
 427 1001 l 1
 307 1154 l 1
 506 1268 l 1
 426 1307 332 1335 224 1351 c 1
 299 1481 l 1
 497 1465 641 1438 731 1400 c 1
 992 1555 l 1
 1117 1406 l 1
 1047 1367 978 1325 916 1291 c 1
 1118 1121 1219 891 1219 600 c 0
 1219 220 1008 -26 634 -26 c 0
EndSplineSet
EndChar

StartChar: divide
Encoding: 247 247 204
Width: 1006
GlyphClass: 2
Flags: HW
LayerCount: 2
Fore
SplineSet
107 506 m 1
 108 580 141 590 214 590 c 2
 899 590 l 1
 899 515 l 2
 899 462 875 415 823 415 c 2
 107 415 l 1
 107 506 l 1
657 148 m 128
 657 56 594 0 501 0 c 128
 407 0 345 56 345 149 c 1
 344 236 401 296 500 296 c 128
 594 296 657 238 657 148 c 128
661 858 m 128
 661 766 598 709 505 709 c 128
 411 709 349 766 349 859 c 1
 348 946 405 1006 504 1006 c 128
 598 1006 661 948 661 858 c 128
EndSplineSet
EndChar

StartChar: oslash
Encoding: 248 248 205
Width: 1340
GlyphClass: 2
Flags: HW
LayerCount: 2
Fore
SplineSet
930 962 m 1
 1128 892 1263 719 1263 480 c 0
 1264 163 1003 -22 671 -22 c 0
 634 -22 598 -20 563 -16 c 1
 533 -95 l 2
 524 -119 499 -131 458 -131 c 2
 384 -131 l 1
 437 11 l 1
 284 58 179 147 120 276 c 1
 60 404 64 597 128 720 c 128
 221 899 415 1006 671 1005 c 0
 718 1005 764 1001 807 994 c 1
 835 1070 l 2
 846 1100 872 1115 912 1115 c 2
 987 1115 l 1
 930 962 l 1
670 836 m 0
 532 836 511 669 511 509 c 128
 511 404 519 325 535 271 c 1
 740 816 l 1
 720 829 697 836 670 836 c 0
670 147 m 0
 802 147 829 311 829 456 c 128
 829 545 825 614 817 661 c 1
 626 154 l 1
 639 149 654 147 670 147 c 0
EndSplineSet
EndChar

StartChar: thorn
Encoding: 254 254 211
Width: 1306
GlyphClass: 2
Flags: HW
LayerCount: 2
Fore
SplineSet
760 836 m 0
 718 836 663 820 594 789 c 1
 594 140 l 1
 603 139 612 138 621 138 c 2
 719 138 l 2
 767 138 805 169 832 230 c 128
 859 291 873 382 873 504 c 0
 873 725 835 836 760 836 c 0
462 1412 m 2
 572 1412 594 1394 594 1298 c 2
 594 937 l 1
 688 982 776 1005 856 1005 c 128
 1018 1005 1125 942 1196 850 c 0
 1268 758 1304 644 1304 509 c 0
 1304 342 1246 211 1130 116 c 0
 1025 31 893 -12 732 -11 c 0
 696 -11 650 -10 594 -7 c 1
 594 -181 l 2
 594 -267 596 -290 642 -306 c 128
 657 -311 677 -316 703 -323 c 1
 714 -454 l 1
 599 -443 l 2
 503 -434 424 -429 361 -429 c 128
 298 -429 197 -437 57 -454 c 1
 63 -321 l 1
 95 -316 l 1
 162 -307 175 -289 175 -215 c 2
 175 1251 l 1
 2 1251 l 1
 2 1364 l 1
 133 1396 266 1412 402 1412 c 2
 462 1412 l 2
EndSplineSet
EndChar

StartChar: hbar
Encoding: 295 295 213
Width: 1375
GlyphClass: 2
Flags: HW
LayerCount: 2
Fore
SplineSet
482 1412 m 2
 592 1412 614 1394 614 1298 c 2
 614 1165 l 1
 761 1165 l 1
 761 1046 l 1
 614 1046 l 1
 614 882 l 1
 733 964 851 1005 970 1005 c 0
 1161 1005 1256 885 1256 644 c 2
 1256 248 l 2
 1256 205 1259 171 1265 147 c 1
 1398 147 l 1
 1411 23 l 1
 1284 -7 1166 -22 1057 -22 c 0
 906 -22 831 14 831 85 c 1
 837 274 l 1
 837 623 l 2
 837 709 826 765 803 790 c 0
 792 802 778 808 759 808 c 0
 717 808 669 785 614 739 c 1
 614 233 l 2
 614 198 619 174 629 163 c 0
 644 147 670 135 707 127 c 1
 718 -11 l 1
 515 -4 387 0 332 0 c 128
 277 0 192 -4 77 -11 c 1
 82 126 l 1
 129 133 157 143 168 154 c 0
 185 173 194 210 194 265 c 2
 194 1046 l 1
 43 1046 l 1
 43 1165 l 1
 194 1165 l 1
 194 1187 l 2
 194 1214 193 1235 191 1251 c 1
 22 1251 l 1
 22 1364 l 1
 153 1396 286 1412 422 1412 c 2
 482 1412 l 2
EndSplineSet
EndChar

StartChar: dotlessi
Encoding: 305 305 216
Width: 702
GlyphClass: 2
Flags: HW
LayerCount: 2
Fore
SplineSet
194 95 m 1
 200 284 l 1
 200 824 l 1
 28 824 l 1
 28 950 l 1
 163 979 285 994 395 994 c 0
 544 994 619 962 619 899 c 2
 619 239 l 2
 619 202 622 172 628 147 c 1
 761 147 l 1
 774 33 l 1
 645 4 527 -11 420 -11 c 0
 269 -11 194 24 194 95 c 1
EndSplineSet
EndChar

StartChar: kgreenlandic
Encoding: 312 312 222
Width: 1389
GlyphClass: 2
Flags: HW
LayerCount: 2
Fore
SplineSet
734 -11 m 1
 521 -4 388 0 334 0 c 128
 280 0 197 -4 82 -11 c 1
 88 119 l 1
 119 125 151 125 172 139 c 0
 191 151 200 180 200 225 c 2
 200 769 l 2
 200 796 199 817 197 833 c 1
 28 833 l 1
 28 946 l 1
 161 979 313 995 484 995 c 0
 545 995 584 987 602 970 c 0
 613 959 619 929 619 880 c 2
 619 629 l 1
 836 777 l 1
 848 787 854 796 854 804 c 0
 854 825 824 835 764 835 c 1
 764 983 l 1
 1397 983 l 1
 1397 824 l 1
 1334 824 1286 817 1253 803 c 0
 1212 786 1160 755 1099 711 c 2
 952 603 l 1
 1222 189 l 2
 1253 142 1290 118 1334 118 c 1
 1419 120 l 1
 1444 -11 l 1
 1350 -4 1235 0 1099 0 c 128
 963 0 861 -4 792 -11 c 1
 787 120 l 1
 844 120 l 1
 651 453 l 1
 619 433 l 1
 619 212 l 1
 623 178 630 157 640 148 c 0
 654 136 683 126 728 117 c 1
 734 -11 l 1
EndSplineSet
EndChar

StartChar: Lslash
Encoding: 321 321 225
Width: 1374
GlyphClass: 2
Flags: HW
LayerCount: 2
Fore
SplineSet
46 1377 m 1
 191 1392 335 1399 478 1399 c 128
 621 1399 749 1394 861 1383 c 1
 861 1215 l 1
 674 1215 l 1
 669 1196 667 1167 667 1129 c 2
 667 892 l 1
 1051 1084 l 1
 1051 860 l 1
 667 669 l 1
 667 167 l 1
 896 167 l 1
 955 166 995 197 1018 258 c 1
 1041 328 1062 393 1085 471 c 1
 1320 439 l 1
 1278 0 l 1
 857 0 l 2
 429 0 181 -4 112 -12 c 1
 112 167 l 1
 234 167 l 1
 237 227 238 280 238 326 c 2
 238 455 l 1
 84 378 l 1
 84 601 l 1
 238 678 l 1
 238 1129 l 2
 238 1160 236 1188 233 1215 c 1
 46 1215 l 1
 46 1377 l 1
EndSplineSet
EndChar

StartChar: lslash
Encoding: 322 322 226
Width: 812
GlyphClass: 2
Flags: HW
LayerCount: 2
Fore
SplineSet
409 1412 m 0
 532 1412 573 1398 619 1347 c 1
 619 1053 l 1
 772 1151 l 1
 772 906 l 1
 619 809 l 1
 619 227 l 2
 619 186 621 159 625 145 c 1
 784 145 l 1
 784 34 l 1
 663 5 545 -9 431 -9 c 128
 317 -9 239 21 196 82 c 1
 196 108 l 1
 199 175 201 233 201 283 c 2
 201 544 l 1
 38 441 l 1
 38 683 l 1
 201 787 l 1
 201 1175 l 2
 201 1206 200 1232 197 1252 c 1
 28 1252 l 1
 28 1366 l 1
 157 1397 284 1412 409 1412 c 0
EndSplineSet
EndChar

StartChar: OE
Encoding: 338 338 229
Width: 2248
GlyphClass: 2
Flags: HW
LayerCount: 2
Fore
SplineSet
543 676 m 0
 543 337 636 167 822 167 c 2
 1101 167 l 1
 1101 1187 l 1
 822 1187 l 2
 734 1187 665 1144 616 1059 c 128
 567 974 543 846 543 676 c 0
1703 765 m 2
 1746 765 1757 839 1771 899 c 1
 1922 899 l 1
 1922 464 l 1
 1913 463 1903 463 1894 463 c 2
 1771 463 l 1
 1754 544 1738 590 1722 601 c 0
 1717 605 1710 607 1703 607 c 2
 1530 607 l 1
 1530 155 l 1
 1810 155 l 2
 1865 155 1905 159 1931 168 c 1
 1938 189 1949 250 1963 349 c 1
 1986 348 2009 348 2030 348 c 2
 2089 348 l 1
 2230 347 l 1
 2227 212 2222 97 2217 2 c 1
 2059 -8 1931 -13 1832 -13 c 2
 1216 -13 l 1
 1101 -12 l 1
 988 -19 885 -22 792 -22 c 128
 585 -22 399 57 288 164 c 0
 157 289 92 461 91 679 c 1
 91 1122 373 1376 822 1376 c 2
 2168 1376 l 1
 2223 1054 l 1
 2000 1026 l 1
 1993 1081 1980 1130 1959 1173 c 1
 1875 1185 1804 1191 1747 1191 c 2
 1530 1191 l 1
 1530 765 l 1
 1703 765 l 2
EndSplineSet
EndChar

StartChar: oe
Encoding: 339 339 230
Width: 1877
GlyphClass: 2
Flags: HW
LayerCount: 2
Fore
SplineSet
1407 590 m 1
 1407 608 l 1
 1406 717 1383 790 1338 827 c 0
 1323 839 1307 845 1288 845 c 0
 1214 845 1169 760 1153 590 c 1
 1407 590 l 1
548 751 m 128
 523 694 511 607 511 490 c 128
 511 373 524 287 550 231 c 128
 576 175 616 147 672 147 c 128
 728 147 768 176 792 234 c 128
 816 292 829 379 829 494 c 0
 829 722 776 836 670 836 c 0
 613 836 573 808 548 751 c 128
1154 442 m 1
 1182 286 1271 169 1449 169 c 128
 1533 169 1627 194 1730 245 c 1
 1748 95 l 1
 1639 17 1497 -22 1324 -22 c 0
 1188 -22 1079 14 996 87 c 1
 903 14 788 -22 651 -22 c 0
 323 -22 77 169 77 488 c 0
 77 655 136 785 253 879 c 0
 358 963 484 1005 630 1005 c 128
 776 1005 896 966 989 888 c 1
 1081 966 1194 1005 1328 1005 c 0
 1589 1005 1798 867 1798 615 c 0
 1798 465 1729 442 1567 442 c 2
 1154 442 l 1
EndSplineSet
EndChar

StartChar: florin
Encoding: 402 402 241
Width: 1102
GlyphClass: 2
Flags: HW
LayerCount: 2
Fore
SplineSet
1072 1227 m 1
 1018 1241 981 1248 961 1248 c 128
 914 1248 888 1215 870 1181 c 0
 854 1149 839 1094 824 1016 c 2
 791 836 l 1
 996 836 l 1
 967 678 l 1
 762 678 l 1
 668 170 l 1
 620 -78 519 -189 235 -189 c 0
 172 -189 103 -186 30 -179 c 1
 51 -22 l 1
 141 -22 201 -8 230 20 c 128
 259 48 283 111 302 210 c 2
 390 678 l 1
 205 678 l 1
 234 836 l 1
 419 836 l 1
 473 1117 l 2
 512 1325 657 1412 906 1412 c 0
 958 1412 1022 1399 1097 1373 c 1
 1072 1227 l 1
EndSplineSet
EndChar

StartChar: uni0237
Encoding: 567 567 269
Width: 874
GlyphClass: 2
Flags: HW
LayerCount: 2
Fore
SplineSet
827 -12 m 2
 827 -308 669 -456 354 -456 c 0
 185 -456 64 -430 -9 -377 c 1
 48 -106 l 1
 293 -135 l 1
 312 -278 l 1
 336 -284 356 -287 373 -287 c 0
 436 -287 468 -245 468 -160 c 0
 468 -117 462 -74 450 -33 c 2
 417 86 l 2
 411 109 408 129 408 147 c 2
 408 824 l 1
 235 824 l 1
 235 950 l 1
 367 979 486 994 593 994 c 0
 704 994 777 976 810 940 c 0
 821 928 826 914 827 899 c 1
 827 -12 l 2
EndSplineSet
EndChar

StartChar: circumflex
Encoding: 710 710 270
Width: 1089
GlyphClass: 2
Flags: HW
LayerCount: 2
Fore
SplineSet
231 1146 m 2
 198 1146 182 1154 182 1170 c 0
 182 1186 188 1204 201 1224 c 2
 373 1495 l 1
 715 1495 l 1
 869 1251 l 1
 894 1214 906 1186 906 1170 c 128
 906 1154 889 1146 856 1146 c 2
 649 1146 l 1
 544 1320 l 1
 449 1146 l 1
 231 1146 l 2
EndSplineSet
EndChar

StartChar: caron
Encoding: 711 711 271
Width: 1091
GlyphClass: 2
Flags: HW
LayerCount: 2
Fore
SplineSet
856 1494 m 2
 889 1494 906 1486 906 1470 c 0
 905 1451 901 1437 894 1427 c 2
 715 1145 l 1
 373 1145 l 1
 219 1389 l 1
 194 1424 182 1451 182 1470 c 0
 182 1486 198 1494 231 1494 c 2
 449 1494 l 1
 544 1320 l 1
 649 1494 l 1
 856 1494 l 2
EndSplineSet
EndChar

StartChar: uni02C9
Encoding: 713 713 272
Width: 931
GlyphClass: 2
Flags: HW
LayerCount: 2
Fore
SplineSet
87 1345 m 1
 845 1345 l 1
 845 1176 l 1
 87 1176 l 1
 87 1345 l 1
EndSplineSet
EndChar

StartChar: breve
Encoding: 728 728 273
Width: 1242
GlyphClass: 2
Flags: HW
LayerCount: 2
Fore
SplineSet
1030 1411 m 1
 1030 1208 840 1127 620 1127 c 1
 429 1126 302 1179 241 1286 c 0
 220 1322 210 1364 210 1411 c 1
 529 1411 l 1
 529 1343 559 1309 620 1309 c 128
 681 1309 711 1343 711 1411 c 1
 1030 1411 l 1
EndSplineSet
EndChar

StartChar: dotaccent
Encoding: 729 729 274
Width: 712
GlyphClass: 2
Flags: HW
LayerCount: 2
Fore
SplineSet
151 1321 m 0
 151 1434 238 1511 351 1510 c 0
 463 1509 550 1431 551 1319 c 1
 551 1199 471 1130 351 1130 c 128
 229 1130 152 1204 151 1321 c 0
EndSplineSet
EndChar

StartChar: ring
Encoding: 730 730 275
Width: 628
GlyphClass: 2
Flags: HW
LayerCount: 2
Fore
SplineSet
484 1298 m 128
 484 1178 400 1109 280 1109 c 128
 158 1109 76 1183 76 1298 c 0
 76 1411 164 1483 280 1483 c 0
 393 1483 484 1420 484 1298 c 128
280 1411 m 128
 209 1411 161 1367 161 1296 c 128
 161 1225 209 1182 280 1182 c 128
 351 1182 399 1225 399 1296 c 128
 399 1367 351 1411 280 1411 c 128
EndSplineSet
EndChar

StartChar: ogonek
Encoding: 731 731 276
Width: 1021
GlyphClass: 2
Flags: HW
LayerCount: 2
Fore
SplineSet
661 -214 m 0
 672 -214 703 -206 753 -189 c 1
 834 -302 l 1
 749 -365 650 -396 535 -396 c 0
 344 -396 249 -340 249 -227 c 1
 248 -155 317 -73 456 20 c 0
 497 48 543 75 592 100 c 1
 753 32 l 1
 668 -39 625 -110 625 -181 c 0
 625 -203 637 -214 661 -214 c 0
EndSplineSet
EndChar

StartChar: tilde
Encoding: 732 732 277
Width: 1078
GlyphClass: 2
Flags: HW
LayerCount: 2
Fore
SplineSet
128 1282 m 1
 193 1427 279 1499 384 1499 c 0
 440 1499 510 1477 595 1432 c 0
 638 1409 667 1397 682 1397 c 0
 725 1397 764 1433 797 1505 c 1
 924 1446 l 1
 885 1373 845 1318 804 1281 c 128
 763 1244 721 1225 678 1225 c 128
 553 1225 483 1289 396 1321 c 0
 383 1326 369 1328 353 1328 c 128
 337 1328 320 1319 303 1300 c 128
 286 1281 266 1255 243 1222 c 1
 128 1282 l 1
EndSplineSet
EndChar

StartChar: hungarumlaut
Encoding: 733 733 278
Width: 1335
GlyphClass: 2
Flags: HW
LayerCount: 2
Fore
SplineSet
653 1113 m 1
 803 1482 l 1
 1105 1482 l 2
 1164 1482 1195 1464 1198 1428 c 1
 888 1113 l 1
 653 1113 l 1
151 1112 m 1
 301 1482 l 1
 603 1482 l 2
 662 1482 693 1464 696 1428 c 1
 386 1113 l 1
 151 1112 l 1
EndSplineSet
EndChar

StartChar: uni0307
Encoding: 775 775 279
Width: 584
GlyphClass: 2
Flags: HW
LayerCount: 2
Fore
SplineSet
96 1321 m 0
 96 1434 183 1511 296 1510 c 128
 408 1509 496 1432 496 1319 c 0
 496 1199 416 1130 296 1130 c 128
 174 1130 96 1203 96 1321 c 0
EndSplineSet
EndChar

StartChar: uni030F
Encoding: 783 783 280
Width: 1335
GlyphClass: 2
Flags: HW
LayerCount: 2
Fore
SplineSet
639 1539 m 1
 639 1575 670 1593 732 1593 c 2
 1034 1593 l 1
 1184 1223 l 1
 949 1223 l 1
 639 1539 l 1
137 1539 m 1
 137 1575 168 1593 230 1593 c 2
 532 1593 l 1
 682 1223 l 1
 447 1223 l 1
 137 1539 l 1
EndSplineSet
EndChar

StartChar: uni0311
Encoding: 785 785 281
Width: 936
GlyphClass: 2
Flags: HW
LayerCount: 2
Fore
SplineSet
59 1299 m 1
 58 1502 248 1583 469 1583 c 1
 685 1584 879 1499 879 1299 c 1
 560 1299 l 1
 560 1367 530 1401 469 1401 c 128
 408 1401 378 1367 378 1299 c 1
 59 1299 l 1
EndSplineSet
EndChar

StartChar: uni0326
Encoding: 806 806 282
Width: 546
GlyphClass: 2
Flags: HW
LayerCount: 2
Fore
SplineSet
210 -482 m 1
 133 -466 65 -401 65 -313 c 128
 65 -174 162 -111 295 -110 c 128
 425 -109 508 -203 508 -330 c 128
 508 -462 473 -537 412 -613 c 0
 353 -688 260 -764 133 -843 c 1
 39 -750 l 1
 116 -676 173 -587 210 -482 c 1
EndSplineSet
EndChar

StartChar: Delta
Encoding: 916 916 283
AltUni2: 002206.ffffffff.0
Width: 1383
GlyphClass: 2
Flags: HW
LayerCount: 2
Fore
SplineSet
613 1091 m 1
 234 131 l 1
 995 131 l 1
 613 1091 l 1
80 0 m 1
 80 73 l 1
 609 1382 l 1
 714 1407 l 1
 1257 73 l 1
 1257 0 l 1
 80 0 l 1
EndSplineSet
EndChar

StartChar: Omega
Encoding: 937 937 284
AltUni2: 002126.ffffffff.0
Width: 1603
GlyphClass: 2
Flags: HW
LayerCount: 2
Fore
SplineSet
1143 748 m 128
 1143 1047 1040 1306 764 1306 c 0
 584 1306 469 1202 418 994 c 0
 374 817 391 607 444 464 c 0
 479 369 540 250 627 108 c 1
 657 60 l 1
 631 0 l 1
 125 0 l 1
 72 321 l 1
 158 321 l 1
 181 258 l 1
 204 201 243 173 299 173 c 2
 460 173 l 1
 258 348 157 544 157 762 c 0
 157 956 215 1112 330 1230 c 0
 444 1347 591 1405 772 1405 c 0
 1141 1405 1380 1151 1380 780 c 0
 1380 627 1322 478 1207 334 c 0
 1166 283 1118 230 1061 173 c 1
 1238 173 l 2
 1278 173 1305 181 1318 198 c 0
 1337 221 1357 262 1377 323 c 1
 1465 323 l 1
 1408 0 l 1
 897 0 l 1
 875 60 l 1
 919 136 l 2
 996 269 1047 366 1071 428 c 0
 1119 549 1143 656 1143 748 c 128
EndSplineSet
EndChar

StartChar: mu.001
Encoding: 956 956 285
Width: 1355
GlyphClass: 2
Flags: HW
LayerCount: 2
Fore
SplineSet
436 -454 m 128
 270 -454 160 -415 160 -261 c 2
 160 824 l 1
 18 824 l 1
 5 950 l 1
 138 979 258 994 365 994 c 0
 508 994 579 962 579 899 c 2
 579 278 l 1
 582 219 589 183 601 170 c 128
 613 157 626 150 640 150 c 128
 674 150 705 163 732 174 c 1
 763 188 789 205 809 226 c 1
 812 260 813 309 813 373 c 2
 813 824 l 1
 680 824 l 1
 669 950 l 1
 798 979 916 994 1024 994 c 0
 1120 994 1184 977 1216 942 c 0
 1227 930 1232 916 1233 899 c 1
 1233 272 l 2
 1233 211 1236 170 1241 147 c 1
 1393 147 l 1
 1393 35 l 1
 1258 4 1134 -11 1020 -11 c 1
 949 -12 903 -7 881 4 c 0
 841 23 820 58 817 109 c 1
 719 32 619 -11 518 -20 c 1
 518 -72 l 2
 518 -207 587 -262 694 -294 c 1
 696 -321 699 -340 699 -358 c 2
 699 -367 l 1
 617 -425 529 -454 436 -454 c 128
EndSplineSet
EndChar

StartChar: pi
Encoding: 960 960 286
Width: 1364
GlyphClass: 2
Flags: HW
LayerCount: 2
Fore
SplineSet
1033 -22 m 0
 882 -22 803 24 778 140 c 128
 770 177 766 241 766 332 c 128
 766 423 773 570 786 773 c 1
 636 773 l 1
 636 578 614 403 571 250 c 0
 542 147 511 77 480 41 c 1
 381 4 269 -23 142 -40 c 1
 113 39 l 1
 229 178 293 410 305 737 c 1
 276 722 244 701 209 675 c 2
 110 600 l 1
 13 762 l 1
 76 839 129 890 172 915 c 0
 253 960 354 983 477 983 c 2
 1357 983 l 1
 1357 772 l 1
 1138 772 l 1
 1131 685 1128 591 1128 490 c 128
 1128 389 1129 329 1132 312 c 128
 1135 295 1143 286 1154 286 c 128
 1165 286 1190 304 1230 340 c 1
 1349 150 l 1
 1281 35 1176 -22 1033 -22 c 0
EndSplineSet
EndChar

StartChar: endash
Encoding: 8211 8211 287
Width: 1001
GlyphClass: 2
Flags: HW
LayerCount: 2
Fore
SplineSet
-12 555 m 2
 -12 645 66 646 176 646 c 2
 1129 646 l 1
 1129 563 l 2
 1129 504 1088 471 1029 471 c 2
 -12 471 l 1
 -12 555 l 2
EndSplineSet
EndChar

StartChar: emdash
Encoding: 8212 8212 288
Width: 1812
GlyphClass: 2
Flags: HW
LayerCount: 2
Fore
SplineSet
-12 555 m 2
 -12 645 66 646 176 646 c 2
 1824 646 l 1
 1824 563 l 2
 1824 497 1764 471 1695 471 c 2
 -12 471 l 1
 -12 555 l 2
EndSplineSet
EndChar

StartChar: quoteleft
Encoding: 8216 8216 289
Width: 635
GlyphClass: 2
Flags: HW
LayerCount: 2
Fore
SplineSet
305 678 m 128
 176 678 92 772 92 898 c 128
 92 1029 127 1103 187 1180 c 0
 246 1255 339 1332 467 1412 c 1
 561 1319 l 1
 484 1245 427 1156 390 1051 c 1
 468 1035 535 971 535 882 c 128
 535 743 438 678 305 678 c 128
EndSplineSet
EndChar

StartChar: quoteright
Encoding: 8217 8217 290
Width: 635
GlyphClass: 2
Flags: HW
LayerCount: 2
Fore
SplineSet
330 1412 m 128
 460 1412 543 1319 543 1192 c 128
 543 1061 508 987 448 910 c 0
 389 835 296 758 168 678 c 1
 74 771 l 1
 151 845 208 934 245 1039 c 1
 168 1055 100 1120 100 1208 c 128
 100 1347 196 1412 330 1412 c 128
EndSplineSet
EndChar

StartChar: quotesinglbase
Encoding: 8218 8218 291
Width: 658
GlyphClass: 2
Flags: HW
LayerCount: 2
Fore
SplineSet
330 358 m 128
 460 358 543 265 543 138 c 128
 543 7 508 -67 448 -144 c 0
 389 -219 296 -296 168 -376 c 1
 74 -283 l 1
 151 -209 208 -120 245 -15 c 1
 168 1 100 66 100 154 c 128
 100 293 196 358 330 358 c 128
EndSplineSet
EndChar

StartChar: quotedblleft
Encoding: 8220 8220 292
Width: 1182
GlyphClass: 2
Flags: HW
LayerCount: 2
Fore
SplineSet
305 678 m 128
 176 678 92 772 92 898 c 128
 92 1029 127 1103 187 1180 c 0
 246 1255 339 1332 467 1412 c 1
 561 1319 l 1
 484 1245 427 1156 390 1051 c 1
 468 1035 535 971 535 882 c 128
 535 743 438 678 305 678 c 128
852 678 m 128
 722 678 639 771 639 898 c 128
 639 1029 674 1103 734 1180 c 0
 793 1255 886 1332 1014 1412 c 1
 1108 1319 l 1
 1031 1245 974 1156 937 1051 c 1
 1015 1035 1082 971 1082 882 c 128
 1082 743 986 678 852 678 c 128
EndSplineSet
EndChar

StartChar: quotedblright
Encoding: 8221 8221 293
Width: 1182
GlyphClass: 2
Flags: HW
LayerCount: 2
Fore
SplineSet
877 1412 m 128
 1006 1412 1090 1318 1090 1192 c 128
 1090 1061 1055 987 995 910 c 0
 936 835 843 758 715 678 c 1
 621 771 l 1
 698 845 755 934 792 1039 c 1
 715 1055 647 1120 647 1208 c 128
 647 1347 744 1412 877 1412 c 128
330 1412 m 128
 460 1412 543 1319 543 1192 c 128
 543 1061 508 987 448 910 c 0
 389 835 296 758 168 678 c 1
 74 771 l 1
 151 845 208 934 245 1039 c 1
 168 1055 100 1120 100 1208 c 128
 100 1347 196 1412 330 1412 c 128
EndSplineSet
EndChar

StartChar: quotedblbase
Encoding: 8222 8222 294
Width: 1179
GlyphClass: 2
Flags: HW
LayerCount: 2
Fore
SplineSet
621 154 m 128
 621 293 718 359 851 358 c 128
 980 357 1064 265 1064 138 c 128
 1064 7 1029 -67 969 -144 c 0
 910 -219 817 -296 689 -376 c 1
 595 -283 l 1
 672 -209 729 -120 766 -15 c 1
 689 1 621 66 621 154 c 128
330 358 m 128
 460 358 543 265 543 138 c 128
 543 7 508 -67 448 -144 c 0
 389 -219 296 -296 168 -376 c 1
 74 -283 l 1
 151 -209 208 -120 245 -15 c 1
 168 1 100 66 100 154 c 128
 100 293 196 358 330 358 c 128
EndSplineSet
EndChar

StartChar: dagger
Encoding: 8224 8224 295
Width: 942
GlyphClass: 2
Flags: HW
LayerCount: 2
Fore
SplineSet
58 1064 m 1
 357 1064 l 1
 357 1371 l 1
 552 1371 l 1
 552 1064 l 1
 849 1064 l 1
 849 919 l 1
 552 919 l 1
 552 0 l 1
 357 0 l 1
 357 919 l 1
 58 919 l 1
 58 1064 l 1
EndSplineSet
EndChar

StartChar: daggerdbl
Encoding: 8225 8225 296
Width: 942
GlyphClass: 2
Flags: HW
LayerCount: 2
Fore
SplineSet
58 1102 m 1
 357 1102 l 1
 357 1371 l 1
 552 1371 l 1
 552 1102 l 1
 849 1102 l 1
 849 956 l 1
 552 956 l 1
 552 416 l 1
 849 416 l 1
 849 269 l 1
 552 269 l 1
 552 0 l 1
 357 0 l 1
 357 269 l 1
 58 269 l 1
 58 416 l 1
 357 416 l 1
 357 956 l 1
 58 956 l 1
 58 1102 l 1
EndSplineSet
EndChar

StartChar: bullet
Encoding: 8226 8226 297
Width: 889
GlyphClass: 2
Flags: HW
LayerCount: 2
Fore
SplineSet
92 607 m 0
 92 792 252 900 445 900 c 0
 638 900 796 794 797 608 c 0
 798 422 638 315 444 315 c 0
 247 315 92 423 92 607 c 0
EndSplineSet
EndChar

StartChar: ellipsis
Encoding: 8230 8230 298
Width: 1827
GlyphClass: 2
Flags: HW
LayerCount: 2
Fore
SplineSet
1575 357 m 1
 1691 357 1776 279 1775 166 c 1
 1775 47 1694 -22 1575 -22 c 128
 1453 -22 1376 52 1375 169 c 0
 1375 282 1461 358 1575 357 c 1
745 169 m 0
 745 282 832 359 945 358 c 0
 1057 357 1144 279 1145 167 c 1
 1145 47 1065 -22 945 -22 c 128
 823 -22 746 52 745 169 c 0
115 169 m 0
 115 282 202 359 315 358 c 0
 427 357 514 279 515 167 c 1
 515 47 435 -22 315 -22 c 128
 193 -22 116 52 115 169 c 0
EndSplineSet
EndChar

StartChar: guilsinglleft
Encoding: 8249 8249 299
Width: 671
GlyphClass: 2
Flags: HW
LayerCount: 2
Fore
SplineSet
358 539 m 1
 457 329 520 192 549 129 c 1
 521 105 485 84 440 66 c 1
 108 469 l 1
 108 583 l 1
 446 1017 l 1
 508 994 548 977 565 964 c 1
 543 902 474 760 358 539 c 1
EndSplineSet
EndChar

StartChar: guilsinglright
Encoding: 8250 8250 300
Width: 671
GlyphClass: 2
Flags: HW
LayerCount: 2
Fore
SplineSet
314 539 m 1
 193 768 124 909 107 964 c 1
 124 977 164 994 226 1017 c 1
 565 583 l 1
 565 469 l 1
 232 66 l 1
 189 82 153 103 123 129 c 1
 152 192 215 329 314 539 c 1
EndSplineSet
EndChar

StartChar: fraction
Encoding: 8260 8260 301
Width: 151
GlyphClass: 2
Flags: HW
LayerCount: 2
Fore
SplineSet
435 1443 m 2
 529 1443 587 1426 608 1392 c 1
 606 1392 590 1363 561 1306 c 128
 455 1101 318 822 191 572 c 2
 -135 -73 l 1
 -286 -73 l 2
 -382 -73 -439 -56 -457 -21 c 1
 -452 -10 -433 24 -399 80 c 1
 -403 78 l 1
 287 1443 l 1
 435 1443 l 2
EndSplineSet
EndChar

StartChar: uni2074
Encoding: 8308 8308 302
Width: 800
GlyphClass: 2
Flags: HW
LayerCount: 2
Fore
SplineSet
878 727 m 2
 878 666 834 660 769 660 c 2
 699 660 l 1
 699 597 l 2
 699 568 700 546 703 533 c 1
 834 533 l 1
 834 408 l 1
 726 413 639 416 573 416 c 128
 507 416 409 413 280 408 c 1
 280 533 l 1
 411 533 l 1
 414 546 415 568 415 597 c 2
 415 660 l 1
 90 660 l 1
 57 716 l 1
 37 756 27 795 27 834 c 1
 405 1388 l 1
 580 1388 l 2
 654 1388 699 1379 699 1319 c 2
 699 780 l 1
 878 780 l 1
 878 727 l 2
415 780 m 1
 415 1035 l 1
 247 780 l 1
 415 780 l 1
EndSplineSet
EndChar

StartChar: Euro
Encoding: 8364 8364 303
Width: 1575
GlyphClass: 2
Flags: HW
LayerCount: 2
Fore
SplineSet
270 869 m 1
 340 1216 583 1412 1001 1412 c 0
 1205 1412 1380 1368 1526 1279 c 1
 1503 1002 l 1
 1174 1002 l 1
 1147 1071 l 2
 1116 1148 1084 1198 1049 1222 c 0
 1034 1233 1009 1238 976 1238 c 128
 895 1238 828 1177 793 1122 c 0
 754 1061 728 977 714 869 c 1
 1178 869 l 1
 1153 771 l 2
 1141 726 1081 704 974 704 c 2
 703 704 l 1
 703 662 l 2
 703 649 704 636 705 623 c 1
 1127 623 l 1
 1108 557 l 2
 1095 515 1081 489 1066 480 c 0
 1040 465 991 458 920 458 c 2
 726 458 l 1
 767 258 860 158 1005 158 c 0
 1138 158 1272 189 1405 251 c 0
 1444 269 1483 288 1522 308 c 1
 1547 112 l 1
 1380 14 1190 -35 979 -35 c 0
 601 -35 344 149 273 458 c 1
 44 458 l 1
 67 558 l 2
 80 618 140 625 219 623 c 1
 250 623 l 1
 250 693 l 2
 250 697 250 701 251 704 c 1
 66 704 l 1
 88 802 l 2
 101 862 159 869 239 869 c 2
 270 869 l 1
EndSplineSet
EndChar

StartChar: trademark
Encoding: 8482 8482 304
Width: 2009
GlyphClass: 2
Flags: HW
LayerCount: 2
Fore
SplineSet
534 799 m 2
 534 777 535 761 536 750 c 1
 636 750 l 1
 636 655 l 1
 549 659 477 661 422 661 c 128
 367 661 294 659 201 655 c 1
 201 750 l 1
 300 750 l 1
 303 759 304 775 304 799 c 2
 304 1302 l 1
 168 1302 l 1
 167 1298 163 1264 156 1199 c 1
 49 1199 l 1
 44 1390 l 1
 60 1397 109 1400 192 1400 c 2
 645 1400 l 2
 728 1400 777 1397 793 1390 c 1
 788 1199 l 1
 681 1199 l 1
 670 1303 l 1
 663 1302 656 1302 649 1302 c 2
 534 1302 l 1
 534 799 l 2
1093 753 m 1
 1098 748 1120 751 1134 751 c 2
 1192 751 l 1
 1183 657 l 1
 1121 661 1070 663 1031 663 c 0
 963 663 893 660 821 655 c 1
 831 751 l 1
 928 751 l 1
 941 823 984 1218 984 1295 c 128
 984 1299 984 1302 983 1303 c 1
 876 1303 l 1
 876 1391 l 1
 966 1397 1041 1400 1100 1400 c 128
 1159 1400 1204 1396 1234 1387 c 1
 1377 967 l 1
 1415 1080 1486 1299 1521 1387 c 1
 1551 1396 1596 1400 1655 1400 c 128
 1714 1400 1789 1397 1879 1391 c 1
 1879 1303 l 1
 1778 1303 l 1
 1778 1290 1782 1247 1790 1172 c 2
 1806 1010 l 2
 1813 932 1822 846 1833 751 c 1
 1931 751 l 1
 1940 655 l 1
 1876 660 1809 663 1738 663 c 128
 1667 663 1600 661 1537 657 c 1
 1543 751 l 1
 1604 751 l 1
 1576 1062 l 1
 1530 899 1491 766 1460 664 c 1
 1266 664 l 1
 1126 1063 l 1
 1104 858 1093 755 1093 753 c 1
EndSplineSet
EndChar

StartChar: estimated
Encoding: 8494 8494 305
Width: 1827
GlyphClass: 2
Flags: HW
LayerCount: 2
Fore
SplineSet
1275 701 m 1
 1275 1083 l 1
 1158 1192 1042 1246 926 1246 c 128
 810 1246 692 1189 575 1076 c 1
 575 701 l 1
 1275 701 l 1
927 64 m 0
 1064 64 1194 137 1319 283 c 1
 1630 283 l 1
 1502 132 1337 35 1136 -8 c 1
 821 -77 523 25 344 159 c 128
 291 199 245 244 206 295 c 0
 123 403 82 523 82 655 c 0
 82 956 298 1157 528 1258 c 0
 654 1313 787 1341 926 1341 c 0
 1249 1340 1523 1193 1660 996 c 1
 1735 890 1772 776 1771 655 c 1
 1771 609 l 1
 575 609 l 1
 575 234 l 1
 692 121 809 64 927 64 c 0
EndSplineSet
EndChar

StartChar: partialdiff
Encoding: 8706 8706 306
Width: 1190
GlyphClass: 2
Flags: HW
LayerCount: 2
Fore
SplineSet
752 598 m 1
 711 679 677 720 650 720 c 128
 528 720 496 586 478 482 c 0
 460 374 453 237 484 150 c 1
 497 109 516 88 540 88 c 0
 628 88 692 194 732 406 c 0
 745 475 752 539 752 598 c 1
540 -27 m 0
 273 -27 77 116 77 376 c 0
 77 489 119 593 203 686 c 0
 302 795 436 850 607 850 c 0
 665 850 719 843 769 828 c 1
 770 852 771 875 771 897 c 128
 771 1022 741 1145 689 1222 c 0
 654 1274 613 1300 564 1299 c 1
 490 1299 376 1266 222 1199 c 1
 149 1355 l 1
 268 1432 395 1470 532 1470 c 0
 664 1470 778 1434 873 1363 c 0
 1035 1242 1136 1030 1134 746 c 128
 1132 454 1032 221 869 87 c 0
 776 11 667 -27 540 -27 c 0
EndSplineSet
EndChar

StartChar: product
Encoding: 8719 8719 307
Width: 1406
GlyphClass: 2
Flags: HW
LayerCount: 2
Fore
SplineSet
948 1226 m 2
 948 1260 941 1261 906 1261 c 2
 489 1261 l 2
 461 1261 455 1261 455 1235 c 2
 455 67 l 1
 456 14 462 -18 474 -28 c 0
 491 -41 534 -52 604 -60 c 1
 604 -165 l 1
 52 -165 l 1
 52 -60 l 1
 84 -57 l 1
 197 -55 226 -32 226 67 c 2
 226 1170 l 2
 226 1216 215 1245 192 1256 c 0
 175 1265 126 1273 46 1278 c 1
 46 1384 l 1
 1350 1384 l 1
 1350 1278 l 1
 1305 1270 1260 1274 1221 1263 c 0
 1188 1253 1171 1222 1171 1170 c 2
 1171 69 l 1
 1170 16 1181 -17 1204 -32 c 0
 1224 -45 1272 -55 1347 -60 c 1
 1347 -165 l 1
 781 -165 l 1
 781 -60 l 1
 812 -57 l 1
 869 -56 905 -48 918 -35 c 0
 938 -15 948 19 948 67 c 2
 948 1226 l 2
EndSplineSet
EndChar

StartChar: summation
Encoding: 8721 8721 308
Width: 1181
GlyphClass: 2
Flags: HW
LayerCount: 2
Fore
SplineSet
365 1264 m 1
 714 676 l 1
 292 31 l 1
 756 31 l 2
 833 31 881 33 918 70 c 128
 935 87 950 111 964 143 c 128
 978 175 994 218 1014 273 c 1
 1119 245 l 1
 1022 -169 l 1
 61 -169 l 1
 61 -87 l 1
 498 566 l 1
 73 1298 l 1
 73 1384 l 1
 1025 1384 l 1
 1055 1017 l 1
 947 993 l 1
 928 1095 906 1169 880 1215 c 1
 850 1262 784 1264 701 1264 c 2
 365 1264 l 1
EndSplineSet
EndChar

StartChar: minus
Encoding: 8722 8722 309
Width: 1141
GlyphClass: 2
Flags: HW
LayerCount: 2
Fore
SplineSet
8 534 m 2
 8 635 69 632 192 632 c 2
 1132 632 l 1
 1132 542 l 2
 1132 521 1123 503 1104 488 c 128
 1085 473 1053 458 1008 445 c 1
 8 445 l 1
 8 534 l 2
EndSplineSet
EndChar

StartChar: uni2215
Encoding: 8725 8725 310
Width: 1071
GlyphClass: 2
Flags: HW
LayerCount: 2
Fore
SplineSet
890 1449 m 1
 1075 1449 l 1
 143 -85 l 1
 -43 -85 l 1
 890 1449 l 1
EndSplineSet
EndChar

StartChar: uni2219
Encoding: 8729 8729 311
Width: 550
GlyphClass: 2
Flags: HW
LayerCount: 2
Fore
SplineSet
256 701 m 128
 365 701 490 663 490 570 c 0
 490 529 466 496 418 471 c 0
 377 450 337 440 296 440 c 128
 194 440 121 460 78 516 c 128
 66 532 60 551 60 572 c 128
 60 659 175 701 256 701 c 128
EndSplineSet
EndChar

StartChar: radical
Encoding: 8730 8730 312
Width: 1296
GlyphClass: 2
Flags: HW
LayerCount: 2
Fore
SplineSet
271 669 m 1
 258 663 201 635 100 584 c 1
 51 731 l 1
 532 957 l 1
 731 450 l 1
 937 1736 l 1
 1226 1670 l 1
 912 -235 l 1
 688 -355 l 1
 271 669 l 1
EndSplineSet
EndChar

StartChar: infinity
Encoding: 8734 8734 313
Width: 1429
GlyphClass: 2
Flags: HW
LayerCount: 2
Fore
SplineSet
1223 550 m 0
 1223 657 1175 746 1078 746 c 128
 984 746 859 633 821 572 c 1
 867 521 l 2
 942 438 1011 396 1072 396 c 0
 1154 396 1223 469 1223 550 c 0
622 565 m 1
 553 634 504 746 366 746 c 128
 265 746 214 665 214 565 c 0
 214 470 271 396 375 396 c 128
 426 396 455 410 488 434 c 0
 521 458 566 502 622 565 c 1
44 566 m 0
 44 760 185 906 380 906 c 0
 477 906 567 865 649 783 c 0
 674 758 700 730 727 699 c 1
 786 766 834 812 871 837 c 0
 941 883 1005 906 1062 906 c 128
 1229 906 1323 826 1368 705 c 128
 1383 664 1390 620 1390 571 c 128
 1390 374 1251 234 1066 234 c 0
 1007 234 951 251 896 284 c 128
 841 317 783 369 721 439 c 1
 666 374 621 330 587 307 c 0
 517 258 443 234 365 234 c 0
 183 234 44 381 44 566 c 0
EndSplineSet
EndChar

StartChar: integral
Encoding: 8747 8747 314
Width: 673
GlyphClass: 2
Flags: HW
LayerCount: 2
Fore
SplineSet
627 1280 m 128
 627 1224 589 1180 536 1180 c 128
 478 1180 467 1210 449 1246 c 128
 445 1254 441 1258 436 1258 c 0
 407 1258 393 1192 393 1060 c 0
 393 983 397 877 406 744 c 0
 423 487 431 320 431 245 c 0
 431 -173 338 -382 151 -382 c 0
 65 -382 0 -339 0 -250 c 128
 0 -206 35 -170 78 -170 c 128
 132 -170 138 -204 155 -238 c 128
 159 -246 166 -251 175 -251 c 0
 202 -251 215 -189 215 -64 c 0
 215 218 178 553 178 821 c 128
 178 1085 229 1388 472 1387 c 0
 512 1387 543 1380 566 1365 c 0
 607 1339 627 1311 627 1280 c 128
EndSplineSet
EndChar

StartChar: approxequal
Encoding: 8776 8776 315
Width: 1116
GlyphClass: 2
Flags: HW
LayerCount: 2
Fore
SplineSet
91 259 m 1
 168 406 273 480 404 480 c 0
 486 480 551 441 606 410 c 128
 657 381 714 340 785 340 c 128
 816 340 844 353 870 380 c 128
 896 407 924 446 954 498 c 1
 1070 393 l 1
 991 247 894 174 781 174 c 0
 729 174 660 197 573 244 c 0
 540 261 509 277 478 292 c 128
 447 307 421 315 400 315 c 128
 354 315 335 307 308 284 c 0
 279 260 245 220 206 163 c 1
 91 259 l 1
91 666 m 1
 168 813 273 887 404 887 c 0
 486 887 551 848 606 817 c 128
 657 788 714 747 785 747 c 128
 816 747 844 760 870 787 c 128
 896 814 924 853 954 905 c 1
 1070 800 l 1
 991 654 894 581 781 581 c 1
 729 582 660 605 573 652 c 0
 540 669 509 685 478 700 c 128
 447 715 421 722 400 722 c 128
 354 722 334 715 308 692 c 1
 279 668 245 627 206 570 c 1
 91 666 l 1
EndSplineSet
EndChar

StartChar: notequal
Encoding: 8800 8800 316
Width: 1114
GlyphClass: 2
Flags: HW
LayerCount: 2
Fore
SplineSet
1058 737 m 2
 1058 678 1039 654 995 638 c 1
 708 638 l 1
 631 461 l 1
 1058 461 l 1
 1058 372 l 2
 1058 319 1037 286 995 272 c 1
 552 272 l 1
 459 58 l 1
 378 58 l 2
 325 58 290 75 273 109 c 1
 338 272 l 1
 72 272 l 1
 72 363 l 2
 72 404 77 429 86 438 c 0
 101 453 130 461 173 461 c 2
 418 461 l 1
 494 638 l 1
 72 638 l 1
 72 728 l 2
 72 815 102 825 188 825 c 2
 574 825 l 1
 665 1037 l 1
 746 1037 l 2
 795 1037 830 1021 851 989 c 1
 834 950 798 848 788 825 c 1
 1058 825 l 1
 1058 737 l 2
EndSplineSet
EndChar

StartChar: lessequal
Encoding: 8804 8804 317
Width: 1104
GlyphClass: 2
Flags: HW
LayerCount: 2
Fore
SplineSet
107 0 m 1
 107 167 l 1
 1042 167 l 1
 1042 0 l 1
 107 0 l 1
116 715 m 1
 116 864 l 1
 1035 1277 l 1
 1035 1086 l 1
 322 792 l 1
 1035 493 l 1
 1035 302 l 1
 116 715 l 1
EndSplineSet
EndChar

StartChar: greaterequal
Encoding: 8805 8805 318
Width: 1104
GlyphClass: 2
Flags: HW
LayerCount: 2
Fore
SplineSet
107 0 m 1
 107 167 l 1
 1042 167 l 1
 1042 0 l 1
 107 0 l 1
114 302 m 1
 114 493 l 1
 827 792 l 1
 114 1086 l 1
 114 1277 l 1
 1033 864 l 1
 1033 715 l 1
 114 302 l 1
EndSplineSet
EndChar

StartChar: lozenge
Encoding: 9674 9674 319
Width: 1092
GlyphClass: 2
Flags: HW
LayerCount: 2
Fore
SplineSet
533 131 m 1
 828 714 l 1
 533 1268 l 1
 230 718 l 1
 533 131 l 1
448 1399 m 1
 611 1399 l 1
 1016 714 l 1
 611 0 l 1
 448 0 l 1
 44 714 l 1
 448 1399 l 1
EndSplineSet
EndChar

StartChar: fi
Encoding: 64257 64257 320
Width: 1656
GlyphClass: 2
Flags: HW
LayerCount: 2
Fore
SplineSet
1066 1125 m 1
 1059 1188 1055 1230 1055 1252 c 1
 973 1252 l 2
 827 1252 700 1260 669 1150 c 128
 660 1120 656 1078 656 1026 c 2
 656 983 l 1
 700 982 742 982 783 982 c 2
 1283 982 l 2
 1410 982 1473 954 1473 899 c 2
 1473 239 l 2
 1473 202 1476 172 1482 147 c 1
 1615 147 l 1
 1628 33 l 1
 1499 4 1381 -11 1274 -11 c 0
 1123 -11 1048 24 1048 95 c 1
 1054 284 l 1
 1054 824 l 1
 656 824 l 1
 656 259 l 2
 656 169 666 148 723 134 c 128
 742 129 769 125 802 120 c 1
 813 -11 l 1
 650 -5 l 2
 546 -2 503 0 394 0 c 128
 340 0 242 -4 100 -11 c 1
 106 121 l 1
 130 124 l 2
 216 134 237 139 237 224 c 2
 237 824 l 1
 32 824 l 1
 32 898 l 2
 32 955 81 983 179 983 c 2
 237 983 l 1
 237 1047 l 2
 237 1290 464 1412 919 1412 c 0
 1087 1412 1244 1391 1390 1349 c 1
 1390 1125 l 1
 1066 1125 l 1
EndSplineSet
EndChar

StartChar: fl
Encoding: 64258 64258 321
Width: 1722
GlyphClass: 2
Flags: HW
LayerCount: 2
Fore
SplineSet
1366 1412 m 2
 1472 1412 1529 1396 1529 1307 c 2
 1529 227 l 2
 1529 186 1531 159 1535 145 c 1
 1694 145 l 1
 1694 34 l 1
 1573 5 1455 -9 1341 -9 c 128
 1227 -9 1149 21 1106 82 c 1
 1106 108 l 1
 1109 175 1111 233 1111 283 c 2
 1111 1175 l 2
 1111 1206 1110 1232 1107 1252 c 1
 765 1252 l 2
 724 1252 702 1250 684 1222 c 0
 665 1192 656 1127 656 1026 c 2
 656 983 l 1
 914 983 l 1
 914 910 l 2
 914 853 869 824 778 824 c 2
 656 824 l 1
 656 259 l 2
 656 169 666 148 723 134 c 128
 742 129 769 125 802 120 c 1
 813 -11 l 1
 650 -5 l 1
 431 1 361 2 100 -11 c 1
 106 121 l 1
 130 124 l 2
 216 134 237 139 237 224 c 2
 237 824 l 1
 32 824 l 1
 32 898 l 2
 32 955 81 983 179 983 c 2
 237 983 l 1
 237 1047 l 2
 237 1290 404 1412 739 1412 c 2
 1366 1412 l 2
EndSplineSet
EndChar

StartChar: _325
Encoding: 65544 -1 327
Width: 914
GlyphClass: 2
Flags: HW
LayerCount: 2
Fore
SplineSet
516 -154 m 128
 646 -154 729 -247 729 -374 c 128
 729 -505 694 -579 634 -656 c 0
 575 -731 482 -808 354 -888 c 1
 260 -795 l 1
 337 -721 394 -632 431 -527 c 1
 354 -511 286 -446 286 -358 c 128
 286 -219 382 -154 516 -154 c 128
EndSplineSet
EndChar

StartChar: _326
Encoding: 65545 -1 328
Width: 652
GlyphClass: 2
Flags: HW
LayerCount: 2
Fore
SplineSet
24 1428 m 1
 24 1464 55 1482 117 1482 c 2
 419 1482 l 1
 569 1112 l 1
 334 1112 l 1
 24 1428 l 1
EndSplineSet
EndChar

StartChar: _327
Encoding: 65546 -1 329
Width: 652
GlyphClass: 2
Flags: HW
LayerCount: 2
Fore
SplineSet
73 1223 m 1
 223 1592 l 1
 525 1592 l 2
 584 1592 615 1574 618 1538 c 1
 308 1223 l 1
 73 1223 l 1
EndSplineSet
EndChar

StartChar: _328
Encoding: 65547 -1 330
Width: 891
GlyphClass: 2
Flags: HW
LayerCount: 2
Fore
SplineSet
133 1146 m 2
 100 1146 84 1154 84 1170 c 0
 84 1193 90 1211 103 1224 c 1
 275 1495 l 1
 617 1495 l 1
 771 1251 l 1
 796 1214 808 1186 808 1170 c 128
 808 1154 791 1146 758 1146 c 2
 551 1146 l 1
 446 1320 l 1
 351 1146 l 1
 133 1146 l 2
EndSplineSet
EndChar

StartChar: _329
Encoding: 65548 -1 331
Width: 618
GlyphClass: 2
Flags: HW
LayerCount: 2
Fore
SplineSet
363 1257 m 1
 362 1345 425 1412 528 1412 c 128
 626 1412 691 1349 692 1255 c 128
 693 1159 625 1100 528 1100 c 128
 429 1100 363 1159 363 1257 c 1
198 1256 m 128
 198 1160 130 1100 33 1100 c 128
 -66 1100 -132 1159 -132 1257 c 0
 -132 1344 -68 1412 34 1412 c 128
 132 1412 198 1350 198 1256 c 128
EndSplineSet
EndChar

StartChar: _330
Encoding: 65549 -1 332
Width: 891
GlyphClass: 2
Flags: HW
LayerCount: 2
Fore
SplineSet
758 1494 m 2
 791 1494 808 1486 808 1470 c 0
 807 1451 803 1437 796 1427 c 2
 617 1145 l 1
 275 1145 l 1
 121 1389 l 1
 96 1426 84 1454 84 1470 c 128
 84 1486 100 1494 133 1494 c 2
 351 1494 l 1
 446 1320 l 1
 551 1494 l 1
 758 1494 l 2
EndSplineSet
EndChar

StartChar: _331
Encoding: 65550 -1 333
Width: 722
GlyphClass: 2
Flags: HW
LayerCount: 2
Fore
SplineSet
113 1298 m 0
 113 1411 201 1483 317 1483 c 0
 410 1483 473 1447 506 1375 c 0
 543 1296 507 1199 464 1160 c 128
 430 1129 380 1109 317 1109 c 128
 195 1109 113 1183 113 1298 c 0
317 1411 m 128
 246 1411 198 1367 198 1296 c 128
 198 1225 246 1182 317 1182 c 128
 388 1182 436 1225 436 1296 c 128
 436 1367 388 1411 317 1411 c 128
EndSplineSet
EndChar

StartChar: _332
Encoding: 65551 -1 334
Width: 1139
GlyphClass: 2
Flags: HW
LayerCount: 2
Fore
SplineSet
956 1477 m 1
 885 1342 807 1275 722 1275 c 0
 610 1275 545 1333 473 1366 c 0
 448 1377 425 1383 405 1383 c 2
 401 1383 l 2
 379 1383 360 1376 342 1361 c 128
 324 1346 303 1324 278 1293 c 1
 241 1293 209 1302 180 1320 c 1
 241 1454 325 1521 431 1521 c 0
 545 1521 617 1455 696 1422 c 0
 709 1417 721 1414 732 1414 c 0
 775 1414 816 1444 854 1505 c 1
 889 1505 923 1496 956 1477 c 1
EndSplineSet
EndChar

StartChar: _333
Encoding: 65552 -1 335
Width: 584
GlyphClass: 2
Flags: HW
LayerCount: 2
Fore
SplineSet
96 1321 m 0
 96 1434 183 1511 296 1510 c 128
 408 1509 496 1432 496 1319 c 0
 496 1199 416 1130 296 1130 c 128
 174 1130 96 1203 96 1321 c 0
EndSplineSet
EndChar

StartChar: dotaccentcmb
Encoding: 65555 -1 338
Width: 712
GlyphClass: 2
Flags: HW
LayerCount: 2
Fore
SplineSet
151 1321 m 0
 151 1434 238 1511 351 1510 c 0
 463 1509 550 1431 551 1319 c 1
 551 1199 471 1130 351 1130 c 128
 229 1130 152 1204 151 1321 c 0
EndSplineSet
EndChar
